<svg viewBox="0 0 924 535" fill="none" xmlns="http://www.w3.org/2000/svg">
<path d="M0.5 4C0.5 2.067 2.067 0.5 4 0.5H920C921.933 0.5 923.5 2.06701 923.5 4V531C923.5 532.933 921.933 534.5 920 534.5H4.00002C2.06702 534.5 0.5 532.933 0.5 531V4Z" fill="white" stroke="#D8D8D8"/>
<path d="M594.902 45.8145H596.074V52.9336H599.76V54H594.902V45.8145ZM605.232 51.3984H601.441C601.469 51.9141 601.641 52.3242 601.957 52.6289C602.277 52.9336 602.689 53.0859 603.193 53.0859C603.896 53.0859 604.545 52.8672 605.139 52.4297V53.4727C604.811 53.6914 604.484 53.8477 604.16 53.9414C603.84 54.0352 603.463 54.082 603.029 54.082C602.436 54.082 601.955 53.959 601.588 53.7129C601.221 53.4668 600.926 53.1367 600.703 52.7227C600.484 52.3047 600.375 51.8223 600.375 51.2754C600.375 50.4551 600.607 49.7891 601.072 49.2773C601.537 48.7617 602.141 48.5039 602.883 48.5039C603.598 48.5039 604.168 48.7539 604.594 49.2539C605.02 49.7539 605.232 50.4238 605.232 51.2637V51.3984ZM601.465 50.7598H604.178C604.15 50.334 604.023 50.0059 603.797 49.7754C603.57 49.5449 603.266 49.4297 602.883 49.4297C602.5 49.4297 602.186 49.5449 601.939 49.7754C601.697 50.0059 601.539 50.334 601.465 50.7598ZM606.516 48.6094V48.2871C606.516 47.4199 606.699 46.7734 607.066 46.3477C607.438 45.9219 607.881 45.709 608.396 45.709C608.619 45.709 608.883 45.7441 609.188 45.8145V46.8574C609.016 46.7949 608.852 46.7637 608.695 46.7637C608.277 46.7637 607.986 46.875 607.822 47.0977C607.662 47.3203 607.582 47.7168 607.582 48.2871V48.6094H608.543V49.5703H607.582V54H606.516V49.5703H605.742V48.6094H606.516ZM608.637 49.4648L610.641 47.4961V48.6094H612.346V49.5703H610.641V52.2129C610.641 52.8301 610.896 53.1387 611.408 53.1387C611.791 53.1387 612.195 53.0098 612.621 52.752V53.748C612.211 53.9785 611.764 54.0938 611.279 54.0938C610.791 54.0938 610.385 53.9512 610.061 53.666C609.959 53.5801 609.875 53.4844 609.809 53.3789C609.742 53.2695 609.686 53.1289 609.639 52.957C609.596 52.7812 609.574 52.4492 609.574 51.9609V49.5703H608.637V49.4648Z" fill="black"/>
<path d="M723.938 54V45.8145H725.988C726.816 45.8145 727.473 46.0195 727.957 46.4297C728.445 46.8398 728.689 47.3945 728.689 48.0938C728.689 48.5703 728.57 48.9824 728.332 49.3301C728.094 49.6777 727.752 49.9375 727.307 50.1094C727.568 50.2812 727.824 50.5156 728.074 50.8125C728.324 51.1094 728.676 51.627 729.129 52.3652C729.414 52.8301 729.643 53.1797 729.814 53.4141L730.248 54H728.854L728.496 53.4609C728.484 53.4414 728.461 53.4082 728.426 53.3613L728.197 53.0391L727.834 52.4414L727.441 51.8027C727.199 51.4668 726.977 51.1992 726.773 51C726.574 50.8008 726.393 50.6582 726.229 50.5723C726.068 50.4824 725.797 50.4375 725.414 50.4375H725.109V54H723.938ZM725.461 46.8105H725.109V49.3945H725.555C726.148 49.3945 726.555 49.3438 726.773 49.2422C726.996 49.1406 727.168 48.9883 727.289 48.7852C727.414 48.5781 727.477 48.3438 727.477 48.082C727.477 47.8242 727.408 47.5918 727.271 47.3848C727.135 47.1738 726.941 47.0254 726.691 46.9395C726.445 46.8535 726.035 46.8105 725.461 46.8105ZM731.561 46.3418C731.736 46.3418 731.887 46.4023 732.012 46.5234C732.137 46.6445 732.199 46.793 732.199 46.9688C732.199 47.1406 732.137 47.2891 732.012 47.4141C731.887 47.5391 731.736 47.6016 731.561 47.6016C731.396 47.6016 731.252 47.5391 731.127 47.4141C731.002 47.2852 730.939 47.1367 730.939 46.9688C730.939 46.8047 731.002 46.6602 731.127 46.5352C731.252 46.4062 731.396 46.3418 731.561 46.3418ZM731.033 48.6094H732.1V54H731.033V48.6094ZM733.371 50.4727C733.371 49.8984 733.58 49.4453 733.998 49.1133C734.42 48.7773 734.994 48.6094 735.721 48.6094H737.941V49.4414H736.852C737.062 49.6562 737.209 49.8516 737.291 50.0273C737.373 50.2031 737.414 50.4043 737.414 50.6309C737.414 50.9121 737.334 51.1895 737.174 51.4629C737.014 51.7324 736.807 51.9395 736.553 52.084C736.303 52.2285 735.891 52.3438 735.316 52.4297C734.914 52.4883 734.713 52.627 734.713 52.8457C734.713 52.9707 734.787 53.0742 734.936 53.1562C735.088 53.2344 735.361 53.3164 735.756 53.4023C736.416 53.5469 736.84 53.6602 737.027 53.7422C737.219 53.8242 737.391 53.9414 737.543 54.0938C737.801 54.3516 737.93 54.6758 737.93 55.0664C737.93 55.5781 737.701 55.9863 737.244 56.291C736.791 56.5957 736.184 56.748 735.422 56.748C734.652 56.748 734.037 56.5938 733.576 56.2852C733.119 55.9805 732.891 55.5703 732.891 55.0547C732.891 54.3242 733.342 53.8535 734.244 53.6426C733.885 53.4121 733.705 53.1836 733.705 52.957C733.705 52.7852 733.781 52.6289 733.934 52.4883C734.09 52.3477 734.299 52.2441 734.561 52.1777C733.768 51.8262 733.371 51.2578 733.371 50.4727ZM735.375 49.5352C735.086 49.5352 734.84 49.6328 734.637 49.8281C734.434 50.0234 734.332 50.2578 734.332 50.5312C734.332 50.8086 734.432 51.0391 734.631 51.2227C734.83 51.4023 735.082 51.4922 735.387 51.4922C735.688 51.4922 735.938 51.4004 736.137 51.2168C736.34 51.0293 736.441 50.7969 736.441 50.5195C736.441 50.2383 736.34 50.0039 736.137 49.8164C735.934 49.6289 735.68 49.5352 735.375 49.5352ZM735.123 54.252C734.764 54.252 734.469 54.3281 734.238 54.4805C734.012 54.6328 733.898 54.8281 733.898 55.0664C733.898 55.6211 734.398 55.8984 735.398 55.8984C735.871 55.8984 736.236 55.8281 736.494 55.6875C736.756 55.5508 736.887 55.3555 736.887 55.1016C736.887 54.8516 736.723 54.6465 736.395 54.4863C736.066 54.3301 735.643 54.252 735.123 54.252ZM738.744 45.8145H739.811V49.3184C740.256 48.7754 740.809 48.5039 741.469 48.5039C741.828 48.5039 742.15 48.5938 742.436 48.7734C742.721 48.9531 742.932 49.2012 743.068 49.5176C743.209 49.834 743.279 50.3047 743.279 50.9297V54H742.213V50.666C742.213 50.2715 742.115 49.9551 741.92 49.7168C741.729 49.4746 741.475 49.3535 741.158 49.3535C740.924 49.3535 740.703 49.4141 740.496 49.5352C740.289 49.6562 740.061 49.8574 739.811 50.1387V54H738.744V45.8145ZM744.012 49.4648L746.016 47.4961V48.6094H747.721V49.5703H746.016V52.2129C746.016 52.8301 746.271 53.1387 746.783 53.1387C747.166 53.1387 747.57 53.0098 747.996 52.752V53.748C747.586 53.9785 747.139 54.0938 746.654 54.0938C746.166 54.0938 745.76 53.9512 745.436 53.666C745.334 53.5801 745.25 53.4844 745.184 53.3789C745.117 53.2695 745.061 53.1289 745.014 52.957C744.971 52.7812 744.949 52.4492 744.949 51.9609V49.5703H744.012V49.4648Z" fill="black"/>
<path d="M168.914 45.8145H173.279V46.8574H170.086V49.1426H173.279V50.1855H170.086V54H168.914V45.8145ZM175.535 48.6094V49.8457L175.594 49.752C176.109 48.9199 176.625 48.5039 177.141 48.5039C177.543 48.5039 177.963 48.707 178.4 49.1133L177.838 50.0508C177.467 49.6992 177.123 49.5234 176.807 49.5234C176.463 49.5234 176.164 49.6875 175.91 50.0156C175.66 50.3438 175.535 50.7324 175.535 51.1816V54H174.463V48.6094H175.535ZM181.729 48.5977C182.549 48.5977 183.23 48.8633 183.773 49.3945C184.316 49.9219 184.588 50.5859 184.588 51.3867C184.588 52.1641 184.312 52.8105 183.762 53.3262C183.211 53.8379 182.518 54.0938 181.682 54.0938C180.873 54.0938 180.197 53.834 179.654 53.3145C179.111 52.791 178.84 52.1387 178.84 51.3574C178.84 50.5684 179.113 49.9121 179.66 49.3887C180.211 48.8613 180.9 48.5977 181.729 48.5977ZM181.67 49.5586C181.158 49.5586 180.738 49.7266 180.41 50.0625C180.082 50.3984 179.918 50.8262 179.918 51.3457C179.918 51.8613 180.086 52.2832 180.422 52.6113C180.758 52.9355 181.189 53.0977 181.717 53.0977C182.24 53.0977 182.668 52.9336 183 52.6055C183.336 52.2734 183.504 51.8496 183.504 51.334C183.504 50.8223 183.33 50.3984 182.982 50.0625C182.635 49.7266 182.197 49.5586 181.67 49.5586ZM186.838 48.6094V49.2949C187.314 48.7676 187.855 48.5039 188.461 48.5039C188.797 48.5039 189.109 48.5918 189.398 48.7676C189.688 48.9395 189.906 49.1777 190.055 49.4824C190.207 49.7832 190.283 50.2617 190.283 50.918V54H189.217V50.9297C189.217 50.3789 189.133 49.9863 188.965 49.752C188.797 49.5137 188.516 49.3945 188.121 49.3945C187.617 49.3945 187.189 49.6465 186.838 50.1504V54H185.748V48.6094H186.838ZM191.016 49.4648L193.02 47.4961V48.6094H194.725V49.5703H193.02V52.2129C193.02 52.8301 193.275 53.1387 193.787 53.1387C194.17 53.1387 194.574 53.0098 195 52.752V53.748C194.59 53.9785 194.143 54.0938 193.658 54.0938C193.17 54.0938 192.764 53.9512 192.439 53.666C192.338 53.5801 192.254 53.4844 192.188 53.3789C192.121 53.2695 192.064 53.1289 192.018 52.957C191.975 52.7812 191.953 52.4492 191.953 51.9609V49.5703H191.016V49.4648Z" fill="black"/>
<path d="M375.674 54H372.902V45.8145H375.047C375.723 45.8145 376.25 45.9062 376.629 46.0898C377.008 46.2695 377.297 46.5195 377.496 46.8398C377.695 47.1562 377.795 47.5234 377.795 47.9414C377.795 48.7461 377.379 49.3223 376.547 49.6699C377.145 49.7832 377.619 50.0293 377.971 50.4082C378.326 50.7871 378.504 51.2402 378.504 51.7676C378.504 52.1855 378.396 52.5586 378.182 52.8867C377.967 53.2148 377.65 53.4824 377.232 53.6895C376.818 53.8965 376.299 54 375.674 54ZM375.082 46.8574H374.074V49.3184H374.854C375.479 49.3184 375.922 49.1992 376.184 48.9609C376.449 48.7227 376.582 48.4141 376.582 48.0352C376.582 47.25 376.082 46.8574 375.082 46.8574ZM375.17 50.3613H374.074V52.957H375.229C375.869 52.957 376.303 52.9082 376.529 52.8105C376.76 52.709 376.943 52.5527 377.08 52.3418C377.221 52.1309 377.291 51.9043 377.291 51.6621C377.291 51.4121 377.217 51.1836 377.068 50.9766C376.924 50.7695 376.717 50.6152 376.447 50.5137C376.178 50.4121 375.752 50.3613 375.17 50.3613ZM382.904 50.7598V53.0508C382.904 53.2344 382.967 53.3262 383.092 53.3262C383.221 53.3262 383.422 53.2305 383.695 53.0391V53.6895C383.453 53.8457 383.258 53.9512 383.109 54.0059C382.965 54.0645 382.812 54.0938 382.652 54.0938C382.195 54.0938 381.926 53.9141 381.844 53.5547C381.391 53.9062 380.908 54.082 380.396 54.082C380.021 54.082 379.709 53.959 379.459 53.7129C379.209 53.4629 379.084 53.1504 379.084 52.7754C379.084 52.4355 379.205 52.1328 379.447 51.8672C379.693 51.5977 380.041 51.3848 380.49 51.2285L381.855 50.7598V50.4727C381.855 49.8242 381.531 49.5 380.883 49.5C380.301 49.5 379.734 49.8008 379.184 50.4023V49.2363C379.598 48.748 380.193 48.5039 380.971 48.5039C381.553 48.5039 382.02 48.6562 382.371 48.9609C382.488 49.0586 382.594 49.1895 382.688 49.3535C382.781 49.5137 382.84 49.6758 382.863 49.8398C382.891 50 382.904 50.3066 382.904 50.7598ZM381.855 52.9336V51.334L381.141 51.6094C380.777 51.7539 380.52 51.9004 380.367 52.0488C380.219 52.1934 380.145 52.375 380.145 52.5938C380.145 52.8164 380.215 52.998 380.355 53.1387C380.5 53.2793 380.686 53.3496 380.912 53.3496C381.252 53.3496 381.566 53.2109 381.855 52.9336ZM388.682 52.7402V53.7949C388.146 53.9941 387.623 54.0938 387.111 54.0938C386.268 54.0938 385.594 53.8438 385.09 53.3438C384.59 52.8438 384.34 52.1738 384.34 51.334C384.34 50.4863 384.584 49.8027 385.072 49.2832C385.561 48.7637 386.203 48.5039 387 48.5039C387.277 48.5039 387.525 48.5312 387.744 48.5859C387.967 48.6367 388.24 48.7344 388.564 48.8789V50.0156C388.025 49.6719 387.525 49.5 387.064 49.5C386.584 49.5 386.189 49.6699 385.881 50.0098C385.572 50.3457 385.418 50.7754 385.418 51.2988C385.418 51.8496 385.584 52.2871 385.916 52.6113C386.252 52.9355 386.703 53.0977 387.27 53.0977C387.68 53.0977 388.15 52.9785 388.682 52.7402ZM393.404 48.6094H394.676L392.373 51.252L395.145 54H393.715L391.014 51.252L393.404 48.6094ZM389.9 45.8145H390.967V54H389.9V45.8145Z" fill="black"/>
<path fill-rule="evenodd" clip-rule="evenodd" d="M560.352 107.997C560.436 107.986 560.518 107.977 560.599 107.97C561.236 107.918 562.352 107.961 562.864 109.009C563.087 109.465 563.115 109.982 563.054 110.491C562.991 111.007 562.826 111.604 562.567 112.289C562.191 113.283 561.587 114.54 560.705 116.123C561.188 115.969 561.691 115.791 562.202 115.61L562.511 115.501C563.18 115.265 563.872 115.027 564.483 114.876C564.483 114.5 564.482 114.5 564.482 114.5L564.48 114.5L564.478 114.5L564.474 114.5L564.468 114.5L564.47 114.5C564.475 114.5 564.485 114.499 564.5 114.498L564.52 114.496C564.574 114.491 564.668 114.479 564.795 114.451C565.05 114.397 565.442 114.283 565.929 114.041C566.897 113.562 568.28 112.558 569.702 110.442C570.711 108.94 571.567 107.245 572.174 105.911C572.477 105.247 572.715 104.679 572.877 104.278C572.958 104.078 573.02 103.92 573.061 103.813C573.081 103.759 573.097 103.719 573.107 103.692L573.118 103.662L573.121 103.655L573.121 103.654L574.302 100.445L575.034 103.784L575.034 103.785L575.039 103.809C575.044 103.83 575.052 103.863 575.064 103.908C575.087 103.998 575.124 104.136 575.178 104.313C575.285 104.669 575.456 105.186 575.711 105.809C576.222 107.057 577.061 108.72 578.37 110.38C579.677 112.037 580.981 113.092 581.943 113.728C582.14 113.858 582.322 113.97 582.487 114.067L584.683 106.078L585.61 109.755L585.613 109.768L585.625 109.813C585.636 109.854 585.652 109.916 585.675 109.998C585.72 110.161 585.788 110.4 585.88 110.699C586.063 111.298 586.339 112.133 586.706 113.074C587.448 114.976 588.532 117.225 589.932 118.846C591.424 120.572 593.548 122.804 595.31 124.615C596.189 125.518 596.974 126.312 597.539 126.881L597.571 126.913C598.598 125.34 599.899 123.525 601.371 121.994C603.15 120.144 605.375 118.5 607.823 118.5C610.125 118.5 612.176 119.71 613.614 121.81C615.042 123.894 615.878 126.858 615.878 130.5C615.878 134.228 614.415 138.399 612.599 141.617C611.686 143.233 610.659 144.655 609.635 145.689C609.123 146.205 608.591 146.645 608.054 146.961C607.605 147.226 607.11 147.429 606.592 147.485C606.605 147.513 606.62 147.544 606.636 147.576C606.763 147.83 606.953 148.14 607.207 148.503C608.238 149.97 610.103 151.979 612.18 154.04C614.243 156.086 616.466 158.137 618.177 159.679C618.716 160.165 619.204 160.599 619.619 160.967L619.653 160.776L620.951 161.758C621.219 161.961 621.497 162.176 621.784 162.397C622.769 163.155 623.857 163.994 624.996 164.73C626.064 165.42 627.093 165.963 628.028 166.252C628.249 162.268 629.542 158.707 631.316 155.275C632.652 152.69 634.296 150.121 635.975 147.496L635.975 147.496C636.724 146.325 637.48 145.144 638.218 143.945C643.038 136.124 647.459 127.091 646.166 113.47C645.548 106.959 643.312 98.4105 637.573 91.3528C631.862 84.3307 622.609 78.69 607.747 78.0679C592.82 77.443 582.463 81.1825 575.027 87.1015C568.079 92.6321 563.595 100.134 560.352 107.997ZM567.443 116.132C567.394 115.957 567.33 115.776 567.242 115.607C568.465 114.91 569.928 113.688 571.359 111.558C572.437 109.955 573.333 108.181 573.962 106.806C574.533 108.153 575.433 109.885 576.802 111.62C578.256 113.463 579.724 114.658 580.843 115.397C581.402 115.767 581.874 116.022 582.214 116.188C582.383 116.271 582.52 116.331 582.618 116.372C582.668 116.393 582.707 116.409 582.736 116.42L582.772 116.434L582.784 116.438L582.789 116.44L582.79 116.441C582.791 116.441 582.792 116.441 583.129 115.5L582.792 116.441L583.807 116.806L584.721 113.479C584.761 113.585 584.802 113.693 584.845 113.801C585.615 115.774 586.798 118.275 588.421 120.154C589.954 121.928 592.114 124.196 593.879 126.01C594.764 126.92 595.554 127.719 596.123 128.291C596.407 128.577 596.636 128.807 596.795 128.965L596.977 129.147L597.04 129.209L597.041 129.21L597.929 130.091L598.591 129.03C599.674 127.295 601.142 125.116 602.81 123.381C604.517 121.606 606.24 120.5 607.823 120.5C609.359 120.5 610.836 121.29 611.966 122.94C613.107 124.606 613.88 127.142 613.88 130.5C613.88 133.772 612.571 137.601 610.859 140.633C610.008 142.142 609.082 143.407 608.217 144.28C607.784 144.716 607.386 145.034 607.041 145.238C606.689 145.445 606.449 145.5 606.311 145.5C605.895 145.5 605.381 145.579 604.978 145.936C604.528 146.334 604.437 146.872 604.476 147.3C604.513 147.705 604.669 148.108 604.849 148.469C605.035 148.844 605.284 149.243 605.573 149.653C606.715 151.279 608.693 153.396 610.774 155.46C612.869 157.539 615.118 159.613 616.84 161.165C617.702 161.942 618.434 162.589 618.95 163.043C618.999 163.085 619.045 163.126 619.09 163.165C619.129 163.199 619.167 163.232 619.203 163.264L619.164 163.473L619.164 163.475C618.677 166.112 618.265 168.344 618.512 170.804C618.778 173.447 619.789 176.29 622.067 180.264C621.844 180.397 621.577 180.553 621.269 180.727C620.23 181.313 618.73 182.096 616.895 182.879C613.213 184.45 608.233 186 602.941 186C597.663 186 593.358 184.457 590.368 182.911C588.874 182.138 587.713 181.366 586.93 180.792C586.561 180.52 586.276 180.294 586.081 180.132C586.074 179.903 586.062 179.598 586.04 179.235C585.991 178.414 585.892 177.29 585.693 176.079C585.495 174.874 585.193 173.555 584.727 172.359C584.267 171.177 583.612 170.021 582.652 169.242C580.965 167.872 579.402 167.387 578.215 167.268C577.628 167.209 577.144 167.242 576.796 167.293C576.622 167.318 576.481 167.348 576.378 167.374C576.334 167.385 576.297 167.395 576.267 167.404L576.227 167.412C576.167 167.423 576.077 167.44 575.96 167.46C575.727 167.501 575.387 167.557 574.969 167.617C574.13 167.736 572.984 167.867 571.745 167.918C570.501 167.968 569.194 167.937 568.024 167.742C566.836 167.545 565.894 167.197 565.288 166.695C564.61 166.136 564.534 165.164 564.933 163.64C565.081 163.072 565.271 162.517 565.46 161.965C565.511 161.815 565.562 161.666 565.612 161.516C565.823 160.888 566.063 160.143 566.063 159.532C566.063 158.828 565.768 158.238 565.438 157.784C565.11 157.332 564.694 156.94 564.338 156.622C564.217 156.514 564.106 156.417 564.004 156.328C563.806 156.155 563.641 156.011 563.498 155.869C563.85 155.663 564.348 155.442 564.901 155.216C565.113 155.129 565.343 155.038 565.569 154.949L565.571 154.948C565.894 154.82 566.209 154.695 566.456 154.59C566.672 154.498 566.896 154.396 567.075 154.291C567.161 154.241 567.282 154.164 567.394 154.06C567.46 153.998 567.764 153.716 567.764 153.244C567.764 152.663 567.325 152.379 567.238 152.325C567.093 152.234 566.944 152.183 566.849 152.153C566.646 152.09 566.397 152.041 566.162 152C565.918 151.958 565.639 151.917 565.355 151.875L565.354 151.875L565.352 151.874L565.346 151.873C565.055 151.83 564.755 151.785 564.455 151.736C563.842 151.633 563.302 151.52 562.931 151.386C562.91 151.378 562.889 151.37 562.87 151.363C562.879 151.322 562.889 151.278 562.901 151.231C562.964 150.971 563.057 150.65 563.171 150.28C563.285 149.911 563.415 149.508 563.552 149.085L563.558 149.066C563.692 148.652 563.832 148.22 563.963 147.796C564.225 146.952 564.474 146.081 564.58 145.404C564.629 145.084 564.667 144.693 564.597 144.341C564.561 144.16 564.479 143.894 564.265 143.662C564.02 143.396 563.692 143.27 563.364 143.27C562.094 143.27 560.79 142.857 559.809 142.314C559.32 142.043 558.948 141.76 558.713 141.518C558.558 141.358 558.507 141.262 558.491 141.233C558.504 141.063 558.581 140.78 558.8 140.331C559.035 139.851 559.385 139.277 559.841 138.575C560.064 138.232 560.311 137.861 560.575 137.464L560.575 137.463C561.372 136.265 562.331 134.822 563.309 133.139C564.378 131.298 565.216 129.415 565.859 127.6L569.487 128.331C569.673 128.562 569.895 128.961 570.084 129.642C570.407 130.803 570.452 131.538 570.415 131.957C570.397 132.166 570.361 132.273 570.346 132.309L570.343 132.316C570.356 132.293 570.404 132.224 570.512 132.156L571.582 133.844L580.102 128.432L570.42 126.479C570.359 126.436 570.297 126.396 570.235 126.358C569.442 125.88 568.615 125.935 568.049 126.205L566.006 127.178C566.669 125.228 567.107 123.365 567.366 121.73C567.624 120.099 567.709 118.665 567.651 117.573C567.622 117.031 567.557 116.537 567.443 116.132ZM597.744 128.5L597.041 129.21C597.041 129.21 597.041 129.21 597.744 128.5ZM623.419 180.598C623.976 181.428 623.975 181.428 623.975 181.428L623.419 180.598ZM584.412 181.332L584.092 181.034V180.598L584.092 180.595L584.092 180.581L584.091 180.519C584.09 180.463 584.089 180.38 584.086 180.272C584.08 180.056 584.069 179.741 584.046 179.355C583.999 178.581 583.906 177.528 583.722 176.404C583.536 175.276 583.263 174.105 582.866 173.085C582.463 172.05 581.968 171.261 581.394 170.795C580.014 169.675 578.82 169.339 578.017 169.258C577.61 169.218 577.29 169.242 577.084 169.272C576.981 169.287 576.907 169.303 576.864 169.314C576.852 169.317 576.842 169.32 576.835 169.322L576.826 169.324L576.825 169.325L576.773 169.343L576.708 169.356L576.707 169.356L576.705 169.356L576.698 169.358L576.677 169.362L576.598 169.377C576.53 169.39 576.431 169.408 576.305 169.43C576.053 169.475 575.692 169.534 575.249 169.597C574.366 169.722 573.151 169.862 571.827 169.916C570.507 169.97 569.051 169.94 567.697 169.715C566.36 169.493 565.016 169.064 564.016 168.238C562.315 166.832 562.598 164.669 563 163.133C563.169 162.487 563.391 161.84 563.582 161.281L563.582 161.281L563.582 161.281L563.582 161.28C563.63 161.141 563.676 161.006 563.719 160.879C563.957 160.171 564.066 159.753 564.066 159.532C564.066 159.405 564.013 159.224 563.822 158.959C563.628 158.692 563.348 158.419 563.009 158.115C562.93 158.045 562.845 157.971 562.756 157.893C562.501 157.67 562.218 157.423 562 157.197C561.845 157.038 561.679 156.846 561.547 156.629C561.417 156.413 561.283 156.11 561.283 155.746C561.283 155.23 561.58 154.866 561.768 154.677C561.977 154.467 562.235 154.293 562.476 154.151C562.8 153.96 563.182 153.777 563.567 153.608C563.109 153.519 562.645 153.409 562.252 153.267C561.978 153.167 561.667 153.028 561.408 152.821C561.145 152.611 560.82 152.231 560.82 151.672C560.82 151.384 560.889 151.048 560.96 150.755C561.038 150.438 561.144 150.073 561.262 149.69C561.381 149.306 561.515 148.89 561.651 148.47L561.656 148.456L561.656 148.455C561.791 148.037 561.927 147.615 562.055 147.203C562.296 146.426 562.49 145.738 562.583 145.232C561.195 145.1 559.872 144.634 558.843 144.064C558.231 143.726 557.686 143.33 557.278 142.91C556.91 142.53 556.492 141.961 556.492 141.283C556.492 140.659 556.722 140.032 557.006 139.451C557.298 138.854 557.705 138.195 558.166 137.485C558.407 137.115 558.665 136.727 558.937 136.317L558.937 136.317L558.937 136.317C559.728 135.128 560.638 133.759 561.582 132.134C563.747 128.405 564.908 124.478 565.393 121.417C565.636 119.884 565.705 118.596 565.656 117.679C565.633 117.245 565.585 116.925 565.531 116.714C565.412 116.725 565.256 116.75 565.058 116.795C564.545 116.913 563.907 117.129 563.174 117.388L562.876 117.493C562.247 117.716 561.571 117.955 560.931 118.145C560.2 118.362 559.419 118.545 558.727 118.545H556.966L557.87 117.031C559.363 114.533 560.243 112.785 560.699 111.58C560.927 110.978 561.035 110.548 561.07 110.251C561.087 110.111 561.086 110.018 561.081 109.961C561.021 109.954 560.921 109.951 560.764 109.964C560.369 109.996 559.913 110.109 559.376 110.241L559.376 110.241L559.376 110.241L559.376 110.241C559.242 110.274 559.104 110.308 558.96 110.343L557.106 110.787L557.796 109.008C561.151 100.36 565.935 91.7834 573.783 85.5361C581.653 79.2716 592.503 75.428 607.83 76.0696C623.222 76.7139 633.025 82.5926 639.122 90.0901C645.19 97.552 647.514 106.524 648.155 113.28C649.507 127.521 644.844 137.002 639.919 144.995C639.138 146.263 638.358 147.481 637.598 148.669L637.598 148.669C635.946 151.251 634.384 153.693 633.091 156.194C631.224 159.805 629.992 163.416 629.992 167.467V168.559L628.905 168.463C627.209 168.313 625.451 167.404 623.913 166.41C622.899 165.755 621.911 165.015 621.036 164.344C620.595 166.761 620.297 168.584 620.5 170.603C620.742 173.015 621.718 175.779 624.277 180.087L624.761 180.9L623.975 181.428L623.965 181.435L623.941 181.451C623.92 181.465 623.89 181.484 623.851 181.51C623.774 181.56 623.661 181.632 623.515 181.723C623.222 181.905 622.795 182.162 622.249 182.469C621.159 183.084 619.593 183.902 617.678 184.719C613.859 186.349 608.6 188 602.941 188C597.269 188 592.649 186.342 589.451 184.687C587.851 183.86 586.602 183.031 585.749 182.405C585.323 182.092 584.994 181.829 584.769 181.641C584.657 181.548 584.571 181.473 584.511 181.42L584.478 181.392L584.441 181.358L584.421 181.34L584.415 181.335L584.413 181.333L584.412 181.332ZM584.412 181.332C584.412 181.332 584.412 181.331 585.091 180.598L584.412 181.332ZM561.16 109.981C561.158 109.981 561.15 109.979 561.137 109.971C561.155 109.976 561.161 109.98 561.16 109.981ZM563.178 156.094L563.172 156.101C563.17 156.103 563.169 156.104 563.169 156.104C563.169 156.104 563.171 156.101 563.178 156.094ZM571.925 128.823L571.929 128.824L571.947 128.895C571.943 128.879 571.938 128.863 571.933 128.847C571.93 128.839 571.928 128.831 571.925 128.823ZM573.369 130.341L573.022 129.044L574.834 129.41L573.369 130.341ZM572.149 129.647L572.485 130.902L572.383 130.967C572.341 130.574 572.265 130.135 572.149 129.647Z" fill="#4D4D4D"/>
<path fill-rule="evenodd" clip-rule="evenodd" d="M778.364 107.999C778.275 107.987 778.188 107.977 778.102 107.97C777.463 107.918 776.342 107.959 775.825 109.005C775.599 109.462 775.57 109.982 775.633 110.492C775.696 111.01 775.863 111.607 776.125 112.292C776.506 113.287 777.117 114.544 778.009 116.128C777.514 115.973 776.999 115.792 776.475 115.609L776.164 115.5C775.439 115.247 774.689 114.992 774.042 114.845C773.717 114.772 773.38 114.716 773.06 114.71C772.755 114.704 772.359 114.74 771.997 114.948C771.804 115.059 771.661 115.206 771.557 115.347C771.346 115.28 771.094 115.182 770.81 115.041C769.843 114.562 768.46 113.558 767.038 111.442C766.029 109.94 765.173 108.245 764.565 106.911C764.263 106.247 764.024 105.679 763.862 105.278C763.782 105.078 763.72 104.92 763.679 104.813L763.645 104.725L763.632 104.692L763.621 104.662L763.619 104.655L763.618 104.654L762.437 101.445L761.706 104.784L761.705 104.785L761.7 104.809C761.695 104.83 761.687 104.863 761.675 104.908C761.652 104.998 761.615 105.136 761.562 105.313C761.455 105.669 761.283 106.186 761.028 106.809C760.518 108.057 759.679 109.72 758.369 111.38C757.062 113.037 755.759 114.092 754.796 114.728C754.6 114.858 754.417 114.97 754.252 115.067L752.056 107.078L751.129 110.755L751.126 110.768L751.114 110.813C751.108 110.838 751.099 110.871 751.088 110.912L751.064 110.998C751.019 111.161 750.951 111.4 750.859 111.699C750.676 112.298 750.401 113.133 750.034 114.074C749.292 115.976 748.207 118.225 746.807 119.846C745.316 121.572 743.192 123.804 741.429 125.615C740.551 126.518 739.766 127.312 739.201 127.881L739.168 127.913C738.142 126.34 736.841 124.525 735.368 122.994C733.59 121.144 731.364 119.5 728.916 119.5C726.614 119.5 724.563 120.71 723.125 122.81C721.697 124.894 720.862 127.858 720.862 131.5C720.862 135.228 722.324 139.399 724.141 142.617C725.053 144.233 726.08 145.655 727.105 146.689C727.617 147.205 728.149 147.645 728.685 147.961C729.134 148.226 729.63 148.429 730.147 148.485C730.134 148.513 730.119 148.544 730.103 148.576C729.977 148.83 729.787 149.14 729.532 149.503C728.501 150.97 726.636 152.979 724.559 155.04C722.496 157.086 720.273 159.137 718.562 160.679L718.392 160.832L718.384 160.787L717.092 161.755C716.821 161.958 716.54 162.172 716.25 162.394C715.254 163.152 714.153 163.991 713.001 164.727C711.915 165.421 710.867 165.967 709.915 166.257C709.692 162.268 708.383 158.704 706.588 155.271C705.238 152.686 703.575 150.116 701.878 147.492C701.121 146.321 700.357 145.14 699.61 143.941C694.737 136.12 690.268 127.089 691.575 113.471C692.199 106.962 694.459 98.4146 700.262 91.357C706.037 84.334 715.397 78.6903 730.431 78.0679C745.529 77.4428 756.006 81.1838 763.527 87.1049C770.552 92.6359 775.086 100.138 778.364 107.999ZM769.923 116.834C770.324 117.032 770.689 117.172 771.005 117.27C770.997 117.369 770.99 117.47 770.984 117.572C770.926 118.666 771.011 120.1 771.273 121.732C771.451 122.844 771.713 124.062 772.074 125.341L769.688 124.205C769.122 123.935 768.295 123.88 767.503 124.358C767.44 124.396 767.378 124.436 767.318 124.479L757.635 126.432L766.155 131.844L767.226 130.156C767.333 130.224 767.381 130.293 767.395 130.316L767.392 130.309C767.376 130.273 767.34 130.166 767.322 129.957C767.286 129.538 767.331 128.803 767.653 127.642C767.842 126.961 768.065 126.562 768.251 126.331L772.133 125.549C772.831 127.968 773.88 130.595 775.376 133.143C776.364 134.826 777.334 136.269 778.139 137.467L778.14 137.467C778.407 137.865 778.656 138.236 778.882 138.58C779.343 139.281 779.697 139.855 779.934 140.335C780.155 140.781 780.232 141.063 780.246 141.231C780.23 141.262 780.177 141.356 780.023 141.514C779.785 141.757 779.407 142.04 778.912 142.312C777.918 142.855 776.597 143.27 775.308 143.27C774.983 143.27 774.655 143.393 774.409 143.658C774.193 143.89 774.109 144.157 774.072 144.339C774.001 144.693 774.04 145.086 774.09 145.406C774.197 146.083 774.449 146.956 774.714 147.799C774.847 148.223 774.988 148.655 775.123 149.069L775.123 149.069L775.13 149.089C775.268 149.511 775.4 149.914 775.514 150.283C775.63 150.653 775.723 150.974 775.788 151.233C775.793 151.256 775.798 151.277 775.803 151.298C775.808 151.319 775.813 151.34 775.818 151.36C775.797 151.368 775.776 151.376 775.753 151.385C775.376 151.52 774.829 151.633 774.208 151.735C773.905 151.785 773.601 151.83 773.307 151.873L773.3 151.874C773.013 151.916 772.729 151.958 772.483 152C772.245 152.041 771.994 152.089 771.79 152.152C771.696 152.181 771.546 152.233 771.401 152.322C771.317 152.374 770.871 152.657 770.871 153.244C770.871 153.72 771.179 154.003 771.244 154.063C771.357 154.167 771.478 154.243 771.565 154.293C771.746 154.398 771.971 154.499 772.189 154.591C772.439 154.697 772.757 154.821 773.083 154.949L773.083 154.949L773.083 154.949C773.313 155.039 773.546 155.13 773.762 155.217C774.32 155.443 774.823 155.664 775.18 155.87C775.036 156.01 774.87 156.153 774.672 156.325C774.569 156.414 774.457 156.511 774.334 156.619C773.975 156.936 773.554 157.328 773.223 157.779C772.89 158.233 772.59 158.825 772.59 159.532C772.59 160.146 772.833 160.892 773.046 161.52C773.097 161.669 773.149 161.818 773.2 161.968L773.2 161.968C773.391 162.52 773.583 163.075 773.733 163.643C774.136 165.164 774.059 166.132 773.374 166.692C772.758 167.195 771.803 167.544 770.6 167.742C769.415 167.937 768.091 167.968 766.833 167.918C765.579 167.867 764.419 167.736 763.571 167.617C763.148 167.557 762.804 167.501 762.568 167.46C762.45 167.44 762.359 167.423 762.298 167.412L762.257 167.404C762.226 167.395 762.189 167.385 762.144 167.374C762.04 167.348 761.899 167.318 761.724 167.292C761.373 167.242 760.886 167.21 760.294 167.268C759.099 167.386 757.521 167.87 755.817 169.238C754.847 170.016 754.185 171.172 753.719 172.355C753.248 173.552 752.943 174.872 752.742 176.078C752.541 177.288 752.441 178.413 752.391 179.234C752.369 179.607 752.356 179.919 752.349 180.149C752.166 180.31 751.898 180.535 751.547 180.805C750.804 181.377 749.696 182.146 748.25 182.916C745.361 184.457 741.135 186 735.796 186C730.44 186 725.332 184.448 721.538 182.875C719.646 182.091 718.094 181.306 717.017 180.72C716.695 180.544 716.415 180.386 716.183 180.252C718.477 176.279 719.444 173.432 719.655 170.783C719.839 168.467 719.43 166.342 718.962 163.906L718.962 163.904C718.913 163.651 718.864 163.395 718.815 163.136C719.144 162.843 719.508 162.517 719.899 162.165C721.622 160.613 723.871 158.539 725.966 156.46C728.046 154.396 730.024 152.279 731.166 150.653C731.455 150.243 731.704 149.844 731.891 149.469C732.071 149.108 732.226 148.705 732.263 148.3C732.303 147.872 732.211 147.334 731.762 146.936C731.358 146.579 730.844 146.5 730.428 146.5C730.291 146.5 730.051 146.445 729.698 146.238C729.353 146.034 728.955 145.716 728.523 145.28C727.657 144.407 726.732 143.142 725.88 141.633C724.169 138.601 722.86 134.772 722.86 131.5C722.86 128.142 723.633 125.606 724.773 123.94C725.903 122.29 727.38 121.5 728.916 121.5C730.5 121.5 732.222 122.606 733.929 124.381C735.598 126.116 737.065 128.295 738.148 130.03L738.81 131.091L739.699 130.21L739.699 130.209L739.762 130.147L739.945 129.965C740.103 129.807 740.332 129.577 740.617 129.291C741.185 128.719 741.975 127.92 742.86 127.01C744.626 125.196 746.785 122.928 748.318 121.154C749.941 119.275 751.125 116.774 751.895 114.801C751.937 114.693 751.978 114.585 752.018 114.479L752.933 117.806L753.947 117.441L753.61 116.5C753.947 117.441 753.949 117.441 753.949 117.441L753.951 117.44L753.955 117.438L753.967 117.434L754.003 117.42C754.032 117.409 754.072 117.393 754.121 117.372C754.219 117.331 754.356 117.271 754.526 117.188C754.865 117.022 755.337 116.767 755.896 116.397C757.016 115.658 758.484 114.463 759.937 112.62C761.306 110.885 762.207 109.153 762.777 107.806C763.406 109.181 764.303 110.955 765.38 112.558C766.982 114.942 768.622 116.188 769.923 116.834ZM738.995 129.5C739.698 130.21 739.699 130.21 739.699 130.21L738.995 129.5ZM716.97 164.757C716.97 164.757 716.969 164.758 716.761 164.516C715.933 165.141 715.016 165.813 714.076 166.413C712.521 167.407 710.747 168.313 709.037 168.463L707.951 168.558V167.467C707.951 163.419 706.706 159.809 704.818 156.198C703.511 153.697 701.932 151.256 700.261 148.673C699.492 147.485 698.704 146.267 697.915 145C692.935 137.007 688.219 127.524 689.586 113.279C690.235 106.521 692.584 97.5479 698.72 90.0859C704.884 82.5893 714.792 76.7136 730.348 76.0696C745.841 75.4282 756.807 79.2703 764.762 85.5328C772.696 91.7791 777.534 100.355 780.926 109.005L781.624 110.784L779.766 110.343C779.621 110.309 779.481 110.275 779.346 110.242L779.346 110.242C778.803 110.109 778.34 109.997 777.939 109.964C777.771 109.95 777.666 109.954 777.605 109.962C777.6 110.019 777.599 110.111 777.616 110.25C777.652 110.545 777.76 110.975 777.991 111.577C778.452 112.781 779.342 114.529 780.851 117.027L781.768 118.545H779.996C779.3 118.545 778.513 118.362 777.774 118.146C777.127 117.956 776.445 117.717 775.809 117.494L775.507 117.389C774.766 117.131 774.12 116.914 773.599 116.796C773.392 116.749 773.229 116.723 773.107 116.713C773.051 116.924 773.003 117.244 772.979 117.679C772.93 118.596 773 119.883 773.245 121.415C773.736 124.476 774.909 128.402 777.098 132.13C778.052 133.755 778.972 135.123 779.772 136.313C780.047 136.722 780.308 137.111 780.551 137.481C781.018 138.191 781.429 138.85 781.724 139.447C782.012 140.028 782.245 140.656 782.245 141.283C782.245 141.966 781.82 142.535 781.45 142.914C781.038 143.334 780.488 143.729 779.87 144.067C778.828 144.637 777.49 145.102 776.087 145.233C776.181 145.738 776.376 146.424 776.62 147.2C776.749 147.612 776.887 148.035 777.024 148.453L777.028 148.466C777.166 148.886 777.302 149.303 777.422 149.687C777.541 150.07 777.648 150.435 777.727 150.753C777.799 151.046 777.87 151.383 777.87 151.672C777.87 152.236 777.538 152.616 777.275 152.824C777.014 153.03 776.702 153.169 776.426 153.268C776.029 153.41 775.561 153.52 775.099 153.608C775.486 153.777 775.87 153.958 776.196 154.148C776.44 154.29 776.699 154.464 776.91 154.673C777.099 154.86 777.401 155.226 777.401 155.746C777.401 156.113 777.265 156.417 777.133 156.633C777 156.85 776.832 157.042 776.675 157.201C776.455 157.427 776.169 157.673 775.911 157.897L775.911 157.897C775.821 157.974 775.735 158.049 775.656 158.119C775.312 158.422 775.029 158.696 774.833 158.964C774.639 159.228 774.588 159.409 774.588 159.532C774.588 159.751 774.697 160.167 774.938 160.876C774.981 161.003 775.027 161.138 775.076 161.278C775.269 161.836 775.493 162.484 775.665 163.13C776.072 164.669 776.357 166.836 774.638 168.241C773.629 169.065 772.273 169.494 770.924 169.716C769.556 169.94 768.085 169.97 766.752 169.916C765.414 169.862 764.186 169.723 763.294 169.597C762.847 169.534 762.482 169.475 762.227 169.431C762.1 169.409 762 169.39 761.931 169.378L761.851 169.362L761.829 169.358L761.821 169.357L761.82 169.356L761.755 169.343L761.706 169.326L761.705 169.326L761.703 169.326L761.702 169.325C761.697 169.324 761.683 169.32 761.663 169.315C761.619 169.304 761.543 169.287 761.438 169.272C761.228 169.242 760.904 169.218 760.49 169.258C759.673 169.339 758.464 169.677 757.066 170.799C756.485 171.265 755.985 172.055 755.578 173.088C755.176 174.108 754.9 175.278 754.713 176.406C754.526 177.529 754.432 178.582 754.385 179.356C754.362 179.742 754.35 180.056 754.344 180.272C754.342 180.38 754.34 180.464 754.339 180.519L754.339 180.581L754.339 180.595L754.339 180.598V181.016L754.041 181.31C754.042 181.309 754.042 181.309 753.34 180.598L754.041 181.31L754.04 181.311L754.038 181.313L754.032 181.318L754.013 181.337C753.997 181.352 753.975 181.374 753.947 181.4C753.89 181.454 753.807 181.529 753.7 181.623C753.486 181.812 753.173 182.076 752.765 182.391C751.948 183.02 750.746 183.852 749.19 184.682C746.076 186.342 741.529 188 735.796 188C730.08 188 724.699 186.35 720.773 184.723C718.805 183.907 717.189 183.09 716.062 182.477C715.498 182.169 715.057 181.913 714.754 181.731C714.602 181.641 714.485 181.569 714.405 181.519L714.344 181.481L714.313 181.461L714.288 181.445L714.281 181.44L714.278 181.438L714.819 180.598C714.277 181.438 714.277 181.438 714.278 181.438L713.464 180.913L713.963 180.082C716.546 175.782 717.472 173.026 717.663 170.624C717.817 168.687 717.506 166.941 717.072 164.668L717.025 164.709L716.97 164.757ZM777.529 109.982C777.53 109.983 777.539 109.981 777.55 109.973C777.534 109.977 777.528 109.981 777.529 109.982ZM775.508 156.098C775.512 156.103 775.515 156.106 775.516 156.108L775.517 156.108C775.517 156.108 775.517 156.108 775.515 156.106C775.514 156.104 775.512 156.102 775.508 156.098ZM762.903 127.41L764.755 127.036L764.421 128.374L762.903 127.41ZM765.355 128.967L765.31 128.939L765.414 128.522C765.39 128.676 765.37 128.825 765.355 128.967Z" fill="#4D4D4D"/>
<path d="M744.027 481.077C744.659 486.141 745.924 493.104 748.453 495.636C750.982 498.168 754.144 498.168 756.041 496.269C759.202 493.737 753.512 479.811 753.512 479.811C753.512 479.811 756.86 493.104 761.099 493.737C766.158 494.37 766.579 488.884 766.158 488.04C765.736 485.508 759.835 474.747 759.835 474.747C759.835 474.747 764.261 483.609 766.79 487.407C770.584 489.035 773.745 484.242 772.481 479.811C771.469 476.267 766.79 469.683 766.79 469.683C766.79 469.683 773.113 479.811 775.01 478.545C777.669 476.416 775.01 472.848 772.481 467.784C769.952 462.72 744.2 434.635 746.556 422.842C748.453 413.347 745.232 410.815 747.762 396.889C749.015 389.985 752.188 384.862 753.452 376" stroke="#4D4D4D" stroke-width="2"/>
<path d="M719.94 376C719.94 381.697 719.308 385.495 719.308 388.66C719.308 401.953 714.008 403.918 714.889 408.916C716.786 419.677 716.787 427.906 716.116 432.97C714.543 438.481 718.712 444.017 721.174 454.491C723.704 465.252 721.174 469.683 723.071 475.38C723.966 478.066 726.865 487.407 728.762 493.737C730.659 500.067 740.884 499.959 742.673 498.168C746.467 494.37 741.919 486.563 741.497 481.077" stroke="#4D4D4D" stroke-width="2"/>
<path d="M742.763 492.471C742.763 494.569 737.705 494.37 737.705 494.37C737.705 494.37 732.646 494.569 732.646 492.471C732.646 490.374 734.911 487.407 737.705 487.407C740.498 487.407 742.763 490.374 742.763 492.471Z" stroke="#4D4D4D"/>
<path d="M755.833 492.172C756.214 493.263 753.465 494.11 753.465 494.11C753.465 494.11 750.788 495.164 750.406 494.073C750.025 492.983 750.701 491.015 752.199 490.49C753.698 489.965 755.451 491.082 755.833 492.172Z" stroke="#4D4D4D"/>
<path d="M764.817 488.074C765.357 489.113 762.681 490.381 762.681 490.381C762.681 490.381 760.107 491.845 759.567 490.805C759.027 489.765 759.439 487.683 760.889 486.929C762.339 486.175 764.278 487.034 764.817 488.074Z" stroke="#4D4D4D"/>
<path d="M771.213 482.437C771.691 483.267 769.734 484.293 769.734 484.293C769.734 484.293 767.867 485.477 767.389 484.647C766.911 483.818 767.09 482.15 768.146 481.54C769.202 480.93 770.734 481.608 771.213 482.437Z" stroke="#4D4D4D"/>
<path d="M776.555 475.061C777.045 475.912 775.038 476.964 775.038 476.964C775.038 476.964 773.124 478.178 772.633 477.328C772.142 476.477 772.326 474.767 773.409 474.141C774.492 473.515 776.064 474.21 776.555 475.061Z" stroke="#4D4D4D"/>
<path d="M611.205 480.724C610.575 485.771 609.314 492.71 606.793 495.234C604.273 497.757 601.122 497.758 599.231 495.865C596.08 493.342 601.752 479.462 601.752 479.462C601.752 479.462 598.415 492.71 594.19 493.341C589.148 493.972 588.728 488.505 589.148 487.664C589.569 485.14 595.45 474.415 595.45 474.415C595.45 474.415 591.039 483.247 588.518 487.033C584.737 488.655 581.586 483.878 582.847 479.462C583.855 475.93 588.518 469.368 588.518 469.368C588.518 469.368 582.216 479.462 580.326 478.201C577.676 476.078 580.326 472.523 582.847 467.476C585.367 462.429 611.032 434.438 608.684 422.684C606.793 413.221 609.944 411.959 607.424 398.08C606.174 391.2 602.382 384.832 601.122 376" stroke="#4D4D4D" stroke-width="2"/>
<path d="M635.343 376.634C635.343 381.681 635.481 385.967 635.343 388.682C634.702 401.363 641.049 401.997 640.401 410.241C639.548 421.098 638.515 427.361 639.149 433.702C639.717 439.386 636.536 444.821 634.082 455.261C631.561 465.986 634.072 468.606 632.182 474.283C631.291 476.96 627.671 487.651 625.78 493.959C623.89 500.268 614.329 499.529 612.547 497.745C608.765 493.959 613.305 486.192 613.726 480.724" stroke="#4D4D4D" stroke-width="2"/>
<path d="M612.463 492.079C612.463 494.169 617.505 493.972 617.505 493.972C617.505 493.972 622.546 494.169 622.546 492.079C622.546 489.988 620.289 487.032 617.505 487.032C614.721 487.032 612.463 489.988 612.463 492.079Z" stroke="#4D4D4D"/>
<path d="M599.534 491.5C599.195 492.471 601.641 493.224 601.641 493.224C601.641 493.224 604.022 494.161 604.361 493.191C604.701 492.221 604.1 490.47 602.767 490.003C601.434 489.536 599.873 490.53 599.534 491.5Z" stroke="#4D4D4D"/>
<path d="M590.737 487.186C590.243 488.044 592.455 489.215 592.455 489.215C592.455 489.215 594.575 490.548 595.069 489.69C595.564 488.832 595.294 487.059 594.098 486.367C592.901 485.676 591.232 486.328 590.737 487.186Z" stroke="#4D4D4D"/>
<path d="M583.678 482.061C583.159 482.96 585.28 484.073 585.28 484.073C585.28 484.073 587.303 485.355 587.822 484.456C588.34 483.558 588.145 481.75 587.001 481.089C585.857 480.427 584.196 481.162 583.678 482.061Z" stroke="#4D4D4D"/>
<path d="M579.696 474.765C579.295 475.462 580.938 476.323 580.938 476.323C580.938 476.323 582.505 477.317 582.906 476.62C583.308 475.924 583.157 474.524 582.271 474.012C581.384 473.5 580.098 474.069 579.696 474.765Z" stroke="#4D4D4D"/>
<path fill-rule="evenodd" clip-rule="evenodd" d="M148.437 92.6076C153.414 86.3782 166.344 72.6629 191.828 76.7449L191.85 76.7485L191.872 76.753C208.038 80.0925 215.875 90.9154 219.64 101.072C223.226 110.745 223.151 119.884 223.137 121.55L223.137 121.649L223.136 121.732C223.136 130.703 220.32 137.992 217.399 143.457C215.949 146.171 214.468 148.443 213.302 150.233L213.281 150.264C212.692 151.168 212.194 151.933 211.812 152.58C211.42 153.243 211.198 153.703 211.111 154.007C210.918 154.681 210.906 155.66 210.965 156.554C210.994 156.984 211.037 157.365 211.073 157.638C211.081 157.701 211.089 157.758 211.096 157.809C211.101 157.846 211.106 157.88 211.111 157.91L211.118 157.956C211.123 157.993 211.128 158.02 211.131 158.038L211.134 158.058L211.135 158.061L211.301 159.022L210.346 159.213C208.972 159.488 207.853 158.979 207.054 158.359C207.109 159.326 207.265 160.554 207.623 161.99L207.794 162.674L207.208 163.064C206.698 163.405 206.133 163.38 205.708 163.276C205.282 163.172 204.862 162.959 204.481 162.723C203.713 162.245 202.888 161.532 202.155 160.83C201.413 160.119 200.724 159.381 200.223 158.823C200.142 158.734 200.067 158.649 199.996 158.569L198.707 159.472C198.228 159.842 197.737 160.203 197.235 160.553C196.884 160.798 196.528 161.037 196.166 161.271V169.733C196.166 171.2 197.051 172.339 198.941 173.389C200.848 174.449 203.519 175.264 206.587 176.146C206.87 176.228 207.156 176.31 207.445 176.393C210.237 177.191 213.264 178.057 216.089 179.213C219.208 180.489 222.17 182.152 224.372 184.557C229.143 189.767 231.808 197.873 233.54 205.896C234.411 209.929 235.054 213.987 235.604 217.711C235.743 218.65 235.875 219.567 236.003 220.455L236.006 220.473L236.007 220.476C236.388 223.118 236.735 225.516 237.105 227.554L237.115 227.611L237.119 227.67C237.604 235.431 239.518 242.724 241.727 251.136L241.833 251.541C244.078 260.092 246.586 269.755 248.094 282.046C248.276 282.731 248.61 283.186 249.45 283.914C249.8 284.218 250.213 284.549 250.722 284.956L250.724 284.957L250.724 284.957L250.725 284.958L250.992 285.171L251.177 285.32C251.892 285.894 252.747 286.592 253.761 287.48C255.919 289.37 257.913 292.752 259.435 295.736C260.207 297.249 260.876 298.7 261.401 299.869C261.597 300.307 261.77 300.697 261.92 301.035C262.179 301.619 262.368 302.045 262.488 302.285C263.057 303.425 263.266 304.588 262.997 305.599C262.714 306.661 261.933 307.428 260.838 307.703C259.784 307.966 258.772 307.611 257.916 307.077C258.882 309.715 259.874 313.148 260.094 316.67C260.127 317.2 260.078 318.124 259.913 319.005C259.83 319.449 259.711 319.918 259.54 320.339C259.378 320.737 259.123 321.209 258.703 321.529C258.284 321.847 257.693 322.136 257.269 322.327C257.179 322.367 257.093 322.405 257.012 322.44C256.963 322.662 256.886 322.925 256.763 323.201C256.416 323.984 255.701 324.863 254.345 325.203C253.345 325.453 252.152 325.28 251.324 325.104C250.903 325.014 250.532 324.912 250.26 324.831C250.239 324.842 250.216 324.854 250.194 324.865C249.828 325.046 249.315 325.208 248.644 325.232L248.626 325.232H248.608C246.814 325.232 245.471 324.48 244.598 323.751C244.161 323.387 243.834 323.023 243.614 322.748L243.593 322.721C242.989 322.69 241.996 322.58 240.801 322.181C240.193 321.978 239.664 321.539 239.216 321.049C238.756 320.546 238.309 319.908 237.88 319.192C237.021 317.759 236.17 315.906 235.381 313.914C233.8 309.925 232.412 305.252 231.653 301.957C231.172 299.874 231.164 298.297 231.155 296.651V296.651L231.155 296.544C231.146 294.877 231.128 293.075 230.644 290.411C230.183 287.874 228.804 284.06 227.18 279.57L226.972 278.996C225.278 274.31 223.387 269.01 222.165 263.968C221.46 261.054 220.75 258.338 220.06 255.698L220.06 255.696L220.059 255.692L220.058 255.69L220.058 255.689C218.556 249.942 217.149 244.558 216.085 238.285C216.285 251.532 216.754 265.355 217.267 278.004C217.604 286.313 217.96 294.123 218.27 300.929C218.763 311.752 219.141 320.032 219.141 323.732C219.141 335.78 217.639 357.322 216.136 369.356C215.723 372.666 216.061 377.178 216.475 382.698L216.5 383.033C216.921 388.656 217.394 395.206 217.142 402.268C216.845 410.601 214.956 421.3 213.159 430.728C212.866 432.262 212.576 433.761 212.296 435.213L212.295 435.215L212.295 435.219L212.294 435.223L212.293 435.228C211.709 438.249 211.165 441.061 210.723 443.539C210.064 447.237 209.651 450.086 209.651 451.732C209.651 455.461 211.445 459.512 213.469 463.464C213.819 464.145 214.177 464.828 214.531 465.503L214.532 465.505L214.533 465.508L214.534 465.51L214.535 465.512L214.536 465.514C215.183 466.748 215.817 467.956 216.36 469.089C217.202 470.844 217.895 472.55 218.13 474.08C218.319 475.312 217.852 476.416 217.069 477.325C216.298 478.221 215.18 478.985 213.893 479.627C211.312 480.913 207.812 481.823 204.27 482.226C198.026 482.937 191.502 481.897 189.357 481.181C188.325 480.837 187.791 479.871 187.501 478.926C187.201 477.945 187.072 476.7 187.045 475.33C186.992 472.576 187.351 469.043 187.835 465.473C188.203 462.758 188.649 459.985 189.051 457.48C189.179 456.685 189.303 455.917 189.418 455.186C189.658 453.664 189.862 452.307 189.999 451.194C190.138 450.061 190.198 449.25 190.174 448.785C190.014 445.754 189.751 441.879 189.466 437.7L189.466 437.699C188.867 428.878 188.174 418.7 188.174 412.232C188.174 408.421 188.352 403.169 188.525 398.033L188.525 398.032L188.525 398.028L188.526 398.022C188.569 396.733 188.612 395.45 188.653 394.2C188.753 391.076 188.834 388.149 188.852 385.787C188.871 383.387 188.822 381.672 188.689 380.904C186.706 369.493 183.273 331.803 182.223 307.732H182.125C181.362 320.878 179.973 337.914 178.668 352.261C177.336 366.911 176.082 378.861 175.669 380.929C175.193 383.308 175.064 387.826 175.126 393.471C175.188 399.08 175.438 405.691 175.687 412.194C175.94 418.761 175.435 426.065 174.873 432.569C174.737 434.133 174.599 435.648 174.467 437.093L174.467 437.096L174.466 437.108L174.466 437.11C174.046 441.711 173.69 445.615 173.69 448.232C173.69 449.786 174.019 452.247 174.475 455.223C174.599 456.033 174.732 456.878 174.868 457.747L174.868 457.747L174.868 457.748L174.869 457.75L174.869 457.751C175.227 460.032 175.611 462.476 175.929 464.88C176.368 468.2 176.688 471.502 176.64 474.276C176.616 475.663 176.499 476.951 176.246 478.058C175.996 479.154 175.593 480.157 174.936 480.897L174.895 480.944L174.848 480.985C174.129 481.614 173.023 481.966 171.839 482.181C170.614 482.402 169.132 482.505 167.511 482.52C164.266 482.55 160.35 482.228 156.577 481.724L156.556 481.721L156.535 481.717C152.187 480.949 149.57 479.71 147.988 478.406C146.38 477.081 145.902 475.739 145.74 474.929C145.674 474.597 145.703 474.259 145.756 473.966C145.811 473.663 145.905 473.337 146.021 473.004C146.252 472.338 146.602 471.55 147.015 470.69C147.429 469.826 147.922 468.858 148.446 467.828L148.454 467.811L148.456 467.809L148.456 467.808C148.979 466.78 149.536 465.684 150.092 464.544C151.213 462.246 152.316 459.793 153.104 457.404C153.895 455.003 154.343 452.739 154.214 450.799C153.813 444.78 152.518 439.215 151.1 433.124L151.1 433.124L151.1 433.124L151.1 433.123L151.1 433.123C150.775 431.726 150.444 430.302 150.115 428.839C148.359 421.016 146.72 412.186 146.72 400.733C146.72 395.747 147.053 391.142 147.376 386.692L147.376 386.691C147.525 384.641 147.671 382.623 147.781 380.615C148.132 374.219 148.13 367.808 146.737 360.418C145.516 353.941 145.105 344.264 145.121 332.778C145.138 321.273 145.585 307.882 146.104 293.945C146.19 291.653 146.277 289.346 146.364 287.03L146.365 287.005L146.365 287.005C146.964 271.172 147.579 254.931 147.703 240.149C147.309 241.749 146.841 243.549 146.358 245.402L146.126 246.297C144.935 250.878 143.702 255.697 143.212 258.885C142.817 261.45 140.916 268.03 138.894 274.269C137.877 277.407 136.82 280.49 135.889 282.981C135.424 284.226 134.988 285.331 134.602 286.225C134.224 287.099 133.87 287.83 133.566 288.287C133.483 288.412 133.385 288.649 133.312 289.1C133.24 289.545 133.203 290.123 133.19 290.879C133.176 291.691 133.189 292.63 133.204 293.747V293.748V293.748V293.748V293.749C133.218 294.753 133.234 295.902 133.234 297.233C133.234 298.757 132.79 300.838 132.166 303.041C131.535 305.269 130.692 307.716 129.841 310.008C128.263 314.255 126.639 318.019 126.234 318.957L126.161 319.127C125.275 321.197 123.761 322.123 122.466 322.504C121.831 322.691 121.257 322.746 120.84 322.756L120.794 322.756C120.655 322.96 120.472 323.204 120.246 323.459C119.671 324.106 118.759 324.886 117.494 325.203C116.28 325.507 115.219 325.354 114.467 325.128C114.244 325.061 114.045 324.987 113.876 324.915C113.692 325.043 113.466 325.183 113.203 325.314C112.442 325.695 111.318 326.028 110.017 325.703C108.761 325.388 108.032 324.721 107.644 324.041C107.524 323.831 107.442 323.629 107.386 323.451L107.367 323.442C107.043 323.289 106.607 323.053 106.164 322.72C105.294 322.067 104.266 320.931 104.266 319.233C104.266 313.738 105.213 310.887 106.566 307.42C106.102 307.722 105.593 307.949 105.035 308.058C104.15 308.231 103.24 308.087 102.321 307.627C101.457 307.194 101.107 306.402 101.023 305.656C100.943 304.946 101.083 304.189 101.264 303.544C101.57 302.452 102.098 301.359 102.286 300.97L102.286 300.97L102.287 300.969L102.287 300.968C102.319 300.903 102.341 300.857 102.35 300.836C102.468 300.562 103.506 298.259 104.944 295.592C106.365 292.955 108.243 289.835 110.052 288.025C110.717 287.359 111.454 286.754 112.152 286.185L112.285 286.077C112.947 285.539 113.571 285.032 114.134 284.494C115.324 283.359 116.127 282.197 116.256 280.65C116.718 275.102 117.667 271.199 123.032 249.148L123.032 249.148L123.032 249.148L123.032 249.148C123.567 246.951 124.145 244.573 124.771 241.996C125.86 237.513 126.655 232.414 127.408 227.081C127.587 225.814 127.763 224.533 127.941 223.245L127.941 223.245C128.508 219.129 129.085 214.94 129.781 210.886C130.696 205.56 131.824 200.415 133.428 195.894C135.029 191.379 137.127 187.421 140.02 184.526C145.658 178.882 152.801 177.055 158.359 175.634L158.584 175.576C161.437 174.846 163.757 174.236 165.381 173.322C166.174 172.876 166.742 172.388 167.115 171.831C167.48 171.286 167.697 170.617 167.697 169.733V161.851L167.688 161.846C167.619 161.879 167.542 161.915 167.46 161.953C167.043 162.146 166.465 162.403 165.82 162.661C165.178 162.918 164.457 163.181 163.757 163.381C163.072 163.577 162.342 163.732 161.703 163.732H160.704V161.035C159.728 161.497 158.303 161.978 156.333 162.225L155.102 162.379L155.508 157.913C154.851 158.332 154.036 158.78 153.084 159.161L151.193 159.918L151.752 157.958C152.051 156.91 152.213 155.677 152.213 153.732C152.213 153.379 152.011 152.75 151.501 151.8C151.014 150.89 150.329 149.834 149.544 148.668C149.293 148.295 149.031 147.911 148.764 147.519L148.764 147.518L148.764 147.518C147.391 145.501 145.87 143.268 144.827 141.18C143.493 138.509 142.856 134.982 142.541 131.575C142.263 128.572 142.229 125.575 142.225 123.201C142.066 123.192 141.893 123.181 141.711 123.167C140.885 123.104 139.783 122.972 138.912 122.681L137.779 122.303L138.351 121.254C139.801 118.591 141.276 114.544 142.399 111.109C142.957 109.402 143.422 107.865 143.748 106.755C143.802 106.568 143.853 106.394 143.9 106.232H138.728L139.927 104.632C140.41 103.988 141.049 103.027 141.85 101.825L141.85 101.825L141.85 101.825L141.85 101.824C142.26 101.209 142.713 100.529 143.208 99.7971C144.65 97.6628 146.415 95.1378 148.437 92.6076ZM197.524 157.86L194.764 159.794C191.057 162.132 186.886 163.733 182.681 163.733C178.322 163.733 173.744 162.073 169.558 159.452C165.391 156.842 161.679 153.32 159.042 149.681C154.68 142.388 152.719 134.391 153.212 123.277L152.633 123.251C152.796 123.224 152.959 123.197 153.123 123.168C155.14 122.814 157.374 122.301 159.057 121.669C161.913 120.597 163.778 119.621 165.218 118.471L164.756 119.464L166.003 119.713C168.675 120.248 172.533 120.032 175.463 119.194C177.436 118.63 178.975 117.726 180.183 116.836V120.233H181.182C185.286 120.233 189.656 119.215 192.31 117.001L192.314 116.998C193.578 115.943 194.365 115.287 195.052 114.6C194.981 115.574 194.867 116.633 194.687 117.537L194.448 118.733H195.666C196.495 118.733 197.337 118.281 198.051 117.77C198.805 117.229 199.591 116.492 200.339 115.67C201.83 114.031 203.27 111.943 204.071 110.139C204.954 108.151 205.433 106.459 205.705 105.05C206.316 107.145 206.884 109.806 207.158 112.823C207.659 118.335 207.815 121.75 207.657 123.65L207.495 125.594L209.166 124.59C210.141 124.005 210.837 123.089 211.332 122.153C211.647 131.871 209.111 143.014 205.305 149.707C203.61 152.244 200.877 155.268 197.524 157.86ZM201.43 157.174C201.514 157.269 201.607 157.373 201.708 157.486C202.19 158.022 202.843 158.721 203.536 159.385C204.167 159.989 204.799 160.533 205.349 160.903C205.103 159.522 205.031 158.365 205.031 157.482C205.031 156.883 205.064 156.41 205.099 156.081C205.116 155.916 205.134 155.787 205.148 155.696C205.152 155.667 205.156 155.642 205.16 155.621L205.166 155.587L205.172 155.554L205.174 155.543L205.175 155.539L205.175 155.538C205.175 155.537 205.175 155.536 206.155 155.732L205.175 155.536L205.746 152.678L207.047 155.282L207.047 155.283L207.048 155.285L207.055 155.297C207.062 155.311 207.075 155.335 207.093 155.368C207.13 155.432 207.187 155.528 207.263 155.644C207.417 155.879 207.64 156.18 207.922 156.463C208.254 156.795 208.617 157.056 209.012 157.189C208.997 157.031 208.983 156.863 208.972 156.686C208.91 155.755 208.897 154.484 209.19 153.458C209.353 152.887 209.692 152.238 210.093 151.561C210.502 150.869 211.027 150.064 211.608 149.171L211.617 149.157L211.618 149.157C212.787 147.362 214.228 145.151 215.638 142.513C218.461 137.23 221.138 130.269 221.138 121.732L221.139 121.65L221.139 121.559L221.139 121.557L221.14 121.553C221.152 119.92 221.223 111.09 217.767 101.768C214.166 92.054 206.775 81.882 191.491 78.7163C167.044 74.8096 154.765 87.89 149.997 93.8569C148.023 96.327 146.292 98.8021 144.862 100.918C144.4 101.602 143.964 102.256 143.561 102.862L143.56 102.862L143.558 102.866L143.554 102.872C143.229 103.359 142.925 103.816 142.645 104.232H146.529L146.185 105.496C146.185 105.496 146.185 105.495 145.221 105.232L146.185 105.496L146.184 105.498L146.176 105.529L146.149 105.624C146.126 105.708 146.092 105.83 146.048 105.987C145.992 106.186 145.919 106.442 145.831 106.745C145.781 106.921 145.725 107.113 145.664 107.319C145.335 108.443 144.863 110 144.298 111.731C143.319 114.725 142.039 118.297 140.704 121.044C141.087 121.102 141.486 121.144 141.864 121.173C142.251 121.203 142.594 121.218 142.84 121.225C142.963 121.229 143.06 121.231 143.127 121.232C143.16 121.232 143.185 121.232 143.201 121.233L143.219 121.233L143.223 121.233H144.222V122.233C144.222 124.737 144.223 128.068 144.53 131.391C144.839 134.734 145.451 137.957 146.614 140.285C147.59 142.24 149.017 144.337 150.392 146.357C150.665 146.758 150.936 147.157 151.201 147.55C151.987 148.717 152.722 149.847 153.262 150.854C153.779 151.819 154.211 152.836 154.211 153.732C154.211 154.777 154.167 155.661 154.076 156.447C154.455 156.222 154.784 155.999 155.06 155.799C155.377 155.568 155.62 155.367 155.78 155.228C155.822 155.191 155.859 155.159 155.889 155.131C155.917 155.106 155.939 155.086 155.957 155.069C155.975 155.051 155.989 155.039 155.996 155.031L156.002 155.026L156.003 155.024L157.953 153.072L157.321 160.038C158.544 159.787 159.42 159.445 160.008 159.151C160.394 158.958 160.658 158.784 160.817 158.667C160.897 158.609 160.95 158.565 160.98 158.54C160.992 158.529 161 158.522 161.004 158.518L161.005 158.517L162.702 156.818V161.59C162.861 161.553 163.03 161.509 163.208 161.458C163.819 161.284 164.472 161.047 165.078 160.804C165.682 160.562 166.228 160.32 166.623 160.137C166.697 160.103 166.766 160.07 166.829 160.041C163.114 157.437 159.83 154.184 157.398 150.819L157.373 150.784L157.351 150.747C155.804 148.167 154.548 145.507 153.581 142.679C151.635 142.392 150.073 140.987 148.969 139.211C147.719 137.198 146.933 134.536 146.724 131.809C146.52 129.16 146.561 127.063 146.7 125.506C146.836 123.975 147.071 122.912 147.292 122.361L147.543 121.733H148.219C149.046 121.733 150.801 121.545 152.778 121.198C154.748 120.852 156.843 120.365 158.356 119.796C161.789 118.508 163.515 117.444 164.809 116.162C165.801 115.18 166.553 114.07 167.6 112.523C167.978 111.964 168.395 111.347 168.876 110.659L170.6 111.656L167.674 117.933C169.893 118.138 172.703 117.904 174.914 117.271C177.492 116.534 179.219 115.123 180.524 113.98L182.181 112.529V118.211C185.714 118.058 189.075 117.097 191.031 115.464C193.411 113.479 193.939 113.038 195.367 111.133L197.165 108.733V111.733V111.734L197.165 111.745L197.165 111.777C197.165 111.805 197.164 111.846 197.164 111.898C197.163 112.002 197.161 112.152 197.157 112.34C197.149 112.715 197.133 113.242 197.101 113.848C197.065 114.528 197.009 115.321 196.919 116.121C197.515 115.689 198.185 115.067 198.862 114.323C200.244 112.804 201.55 110.892 202.245 109.327C203.839 105.738 203.987 103.315 204.092 101.595C204.113 101.247 204.133 100.928 204.162 100.633L204.506 97.1943L206.05 100.285C207.11 102.409 208.631 106.955 209.148 112.642C209.467 116.154 209.654 118.886 209.701 120.949C209.869 120.6 210.014 120.23 210.139 119.854C210.341 119.25 210.471 118.685 210.551 118.27C210.591 118.063 210.618 117.896 210.634 117.783C210.643 117.727 210.648 117.684 210.652 117.656L210.656 117.627L210.656 117.622L210.656 117.621L211.064 113.952L212.562 117.327L212.563 117.329L212.565 117.333L212.57 117.345L212.589 117.389C212.605 117.427 212.628 117.481 212.657 117.551C212.714 117.689 212.794 117.889 212.888 118.138C213.075 118.635 213.319 119.335 213.547 120.151C213.803 121.066 214.05 122.164 214.163 123.302L217.143 120.318V122.733C217.143 123.519 217.178 124.542 217.217 125.686L217.217 125.687C217.243 126.467 217.272 127.303 217.293 128.159C217.342 130.216 217.346 132.38 217.133 133.874C216.862 135.772 216.059 137.916 214.91 139.608C213.842 141.18 212.302 142.6 210.417 142.724C209.465 145.725 208.317 148.459 207.022 150.729L207.005 150.759L206.986 150.787C205.655 152.786 203.747 155.037 201.43 157.174ZM169.694 161.866C173.778 164.213 178.27 165.733 182.681 165.733C186.726 165.733 190.653 164.414 194.168 162.469V169.733C194.168 172.266 195.812 173.938 197.972 175.138C200.115 176.329 203.016 177.201 206.035 178.069C206.318 178.15 206.602 178.231 206.887 178.313C209.695 179.117 212.616 179.953 215.333 181.064C218.325 182.288 220.981 183.813 222.899 185.908C227.285 190.698 229.865 198.341 231.587 206.319C232.444 210.285 233.08 214.29 233.628 218.004C233.764 218.93 233.896 219.84 234.024 220.728C234.404 223.358 234.755 225.789 235.129 227.854C235.632 235.789 237.586 243.232 239.77 251.552L239.77 251.553L239.901 252.049C242.147 260.607 244.629 270.176 246.119 282.354L246.126 282.415L246.141 282.475C246.461 283.758 247.131 284.549 248.142 285.426C248.526 285.759 248.981 286.123 249.497 286.536L249.498 286.536C249.637 286.647 249.78 286.762 249.927 286.88C250.631 287.445 251.462 288.123 252.446 288.985C254.284 290.595 256.132 293.657 257.656 296.645C258.406 298.117 259.06 299.534 259.579 300.689C259.751 301.072 259.911 301.433 260.055 301.759L260.059 301.767C260.338 302.398 260.561 302.899 260.701 303.18C261.13 304.04 261.171 304.69 261.066 305.084C260.974 305.429 260.757 305.661 260.353 305.762C259.875 305.882 259.144 305.622 258.193 304.791C257.304 304.015 256.485 302.967 255.92 302.159C255.853 302.064 255.77 301.947 255.695 301.862C255.675 301.84 255.63 301.791 255.569 301.74C255.539 301.715 255.481 301.669 255.4 301.625C255.336 301.59 255.15 301.496 254.893 301.503C254.555 301.512 254.246 301.69 254.068 301.975C253.933 302.192 253.92 302.399 253.917 302.47C253.911 302.624 253.943 302.746 253.95 302.774L253.951 302.777C253.983 302.902 254.045 303.044 254.078 303.117L254.081 303.124C254.094 303.153 254.108 303.186 254.124 303.22C254.144 303.265 254.166 303.314 254.19 303.366L254.257 303.511L254.293 303.59L254.294 303.59C254.578 304.208 255.039 305.207 255.547 306.479C256.614 309.147 257.86 312.95 258.1 316.795C258.121 317.137 258.089 317.894 257.95 318.636C257.881 319.003 257.793 319.331 257.69 319.584C257.584 319.844 257.501 319.928 257.494 319.936L257.494 319.936L257.494 319.936C257.494 319.936 257.494 319.936 257.494 319.936C257.272 320.105 256.865 320.316 256.449 320.503C256.253 320.591 256.076 320.666 255.947 320.718C255.883 320.744 255.832 320.764 255.797 320.778L255.758 320.793L255.747 320.797L255.101 321.041V321.724L255.101 321.737L255.1 321.749C255.099 321.768 255.096 321.796 255.092 321.83C255.09 321.842 255.089 321.854 255.087 321.867L255.083 321.895C255.061 322.027 255.019 322.205 254.938 322.389C254.786 322.731 254.501 323.102 253.86 323.262C253.335 323.394 252.53 323.316 251.741 323.148C251.37 323.068 251.04 322.977 250.804 322.906L250.733 322.885L250.673 322.866C250.616 322.848 250.567 322.833 250.53 322.82C250.499 322.81 250.475 322.802 250.46 322.797L250.444 322.791L250.442 322.79L249.837 322.575L249.417 323.009C249.401 323.02 249.366 323.044 249.309 323.072C249.19 323.131 248.959 323.217 248.59 323.232C247.397 323.227 246.498 322.733 245.877 322.214C245.564 321.953 245.329 321.692 245.174 321.498C245.132 321.445 245.095 321.397 245.066 321.357C245.055 321.341 245.044 321.327 245.035 321.314L245.023 321.297L245.007 321.274L244.991 321.25C244.982 321.237 244.976 321.228 244.972 321.221L244.97 321.218L244.969 321.217L244.968 321.215L244.967 321.213L244.679 320.732H244.099C243.791 320.733 242.779 320.733 241.432 320.284C241.291 320.237 241.04 320.082 240.69 319.699C240.352 319.329 239.983 318.814 239.593 318.163C238.813 316.862 238.009 315.122 237.238 313.176C235.697 309.29 234.338 304.713 233.599 301.508C233.169 299.642 233.162 298.254 233.153 296.598L233.153 296.533C233.143 294.829 233.125 292.89 232.61 290.054C232.118 287.344 230.687 283.389 229.107 279.022L228.851 278.315C227.152 273.617 225.298 268.417 224.107 263.497C223.392 260.545 222.677 257.807 221.984 255.155C218.793 242.937 216.083 232.565 216.144 211.735L214.146 211.707C213.646 231.493 214.397 256.522 215.271 278.085C215.61 286.463 215.968 294.309 216.279 301.125C216.769 311.884 217.143 320.075 217.143 323.732C217.143 335.685 215.648 357.143 214.154 369.108C213.715 372.621 214.067 377.305 214.469 382.669L214.508 383.182C214.929 388.809 215.393 395.258 215.146 402.197C214.855 410.353 212.997 420.905 211.196 430.353C210.908 431.866 210.621 433.351 210.342 434.792L210.338 434.812L210.338 434.813C209.751 437.849 209.202 440.691 208.757 443.188C208.103 446.851 207.653 449.878 207.653 451.732C207.653 456.003 209.682 460.453 211.692 464.376C212.062 465.099 212.43 465.801 212.788 466.484L212.788 466.484C213.424 467.696 214.028 468.848 214.559 469.954C215.388 471.683 215.968 473.165 216.155 474.384C216.232 474.88 216.075 475.416 215.555 476.02C215.024 476.637 214.162 477.259 213.002 477.837C210.69 478.989 207.432 479.853 204.044 480.239C198.068 480.919 191.839 479.901 189.989 479.284C189.897 479.253 189.642 479.094 189.411 478.339C189.191 477.621 189.068 476.592 189.042 475.291C188.992 472.701 189.333 469.297 189.815 465.742C190.179 463.054 190.619 460.316 191.021 457.816L191.023 457.802C191.151 457.007 191.275 456.236 191.391 455.498C191.632 453.973 191.841 452.587 191.982 451.438C192.12 450.31 192.203 449.34 192.169 448.68C192.006 445.58 191.739 441.658 191.453 437.451L191.452 437.45L191.452 437.445L191.452 437.444C190.854 428.661 190.172 418.633 190.172 412.232C190.172 408.458 190.348 403.255 190.521 398.122L190.521 398.121C190.565 396.823 190.609 395.529 190.649 394.264C190.75 391.139 190.832 388.191 190.85 385.803C190.868 383.452 190.827 381.543 190.657 380.561C188.67 369.125 185.176 330.675 184.178 306.691L184.138 305.732H180.238L180.185 306.676C179.436 319.909 178.014 337.396 176.679 352.079C175.339 366.804 174.096 378.604 173.71 380.537C173.186 383.157 173.066 387.889 173.128 393.493C173.191 399.135 173.441 405.774 173.691 412.271C173.938 418.704 173.444 425.9 172.882 432.396C172.751 433.92 172.615 435.409 172.484 436.841C172.061 441.473 171.692 445.515 171.692 448.232C171.692 449.967 172.05 452.588 172.5 455.526C172.626 456.348 172.759 457.198 172.896 458.069L172.897 458.076L172.898 458.082L172.898 458.082L172.898 458.083C173.256 460.357 173.634 462.763 173.949 465.142C174.384 468.438 174.688 471.621 174.642 474.241C174.62 475.551 174.51 476.688 174.299 477.612C174.094 478.507 173.811 479.128 173.487 479.517C173.177 479.761 172.541 480.021 171.483 480.213C170.412 480.407 169.054 480.506 167.493 480.52C164.381 480.549 160.573 480.239 156.861 479.744C152.733 479.012 150.484 477.873 149.258 476.862C148.056 475.872 147.785 474.965 147.699 474.537L147.7 474.54L147.7 474.539L147.7 474.538C147.699 474.525 147.697 474.46 147.722 474.323C147.752 474.157 147.811 473.938 147.908 473.661C148.101 473.104 148.411 472.399 148.816 471.556C149.218 470.717 149.699 469.771 150.226 468.735L150.236 468.715C150.758 467.689 151.323 466.579 151.888 465.421C153.023 463.094 154.171 460.547 155.001 458.03C155.827 455.524 156.361 452.977 156.207 450.666C155.794 444.47 154.454 438.714 153.033 432.611C152.711 431.229 152.385 429.828 152.065 428.401C150.324 420.648 148.717 411.979 148.717 400.733C148.717 395.819 149.043 391.339 149.363 386.925C149.513 384.857 149.662 382.802 149.776 380.725C150.132 374.246 150.134 367.657 148.7 360.047C147.518 353.774 147.103 344.264 147.119 332.781C147.136 321.317 147.582 307.959 148.101 294.02C148.187 291.713 148.274 289.39 148.363 287.057L148.363 287.056V287.056C149.328 261.54 150.339 234.835 149.256 214.907C149.244 214.645 149.23 214.397 149.215 214.166L147.221 214.29C147.235 214.534 147.248 214.779 147.262 215.025C147.511 220.383 147.101 232.117 146.727 235.109C146.502 236.917 145.511 240.724 144.392 245.024L144.392 245.024L144.392 245.024L144.392 245.025L144.392 245.025L144.192 245.793C143.011 250.338 141.746 255.269 141.237 258.581C140.872 260.957 139.028 267.377 136.994 273.652C135.983 276.772 134.935 279.825 134.018 282.28C133.559 283.509 133.136 284.58 132.768 285.431C132.392 286.302 132.099 286.885 131.904 287.178C131.595 287.642 131.434 288.199 131.34 288.78C131.245 289.367 131.206 290.059 131.193 290.844C131.178 291.665 131.192 292.664 131.207 293.826C131.221 294.841 131.237 295.98 131.237 297.233C131.237 298.459 130.862 300.311 130.244 302.495C129.633 304.653 128.81 307.044 127.968 309.311C126.41 313.506 124.805 317.226 124.399 318.167L124.399 318.167L124.325 318.339C123.713 319.768 122.73 320.342 121.902 320.586C121.475 320.711 121.082 320.75 120.796 320.756C120.654 320.759 120.542 320.754 120.471 320.749C120.457 320.749 120.445 320.748 120.434 320.747C120.417 320.745 120.404 320.744 120.395 320.743L120.39 320.742L120.388 320.742L120.386 320.742L120.383 320.742L119.677 320.64L119.357 321.282L119.356 321.283L119.355 321.284L119.355 321.285L119.354 321.288C119.349 321.295 119.342 321.31 119.33 321.33C119.308 321.37 119.271 321.434 119.22 321.514C119.117 321.675 118.961 321.896 118.753 322.131C118.328 322.609 117.743 323.079 117.01 323.262C116.226 323.459 115.539 323.362 115.042 323.212C114.793 323.138 114.597 323.051 114.468 322.987C114.403 322.954 114.357 322.928 114.33 322.912C114.316 322.904 114.307 322.899 114.304 322.897L114.303 322.896L113.628 322.446L113.054 323.02L113.053 323.022L113.052 323.023L113.045 323.03L113.037 323.037L113.023 323.049C112.994 323.076 112.945 323.117 112.88 323.168C112.747 323.27 112.552 323.404 112.31 323.525C111.823 323.769 111.198 323.936 110.502 323.762C109.76 323.577 109.49 323.244 109.379 323.049C109.315 322.937 109.284 322.835 109.27 322.769C109.264 322.74 109.262 322.72 109.261 322.709V322.012L108.581 321.785L108.58 321.785L108.579 321.784L108.577 321.784L108.567 321.78C108.553 321.775 108.53 321.767 108.498 321.754C108.434 321.729 108.338 321.689 108.22 321.633C107.981 321.52 107.669 321.35 107.363 321.12C106.735 320.649 106.264 320.034 106.264 319.233C106.264 313.647 107.231 311.197 108.725 307.411C109.313 305.922 109.983 304.225 110.708 302.049L108.893 301.236C107.882 303.008 106.957 304.486 105.975 305.36C105.499 305.783 105.064 306.015 104.652 306.095C104.257 306.172 103.794 306.128 103.214 305.838C103.131 305.796 103.042 305.727 103.008 305.431C102.971 305.099 103.033 304.634 103.187 304.085C103.432 303.213 103.815 302.41 104.041 301.936L104.041 301.936C104.102 301.808 104.152 301.704 104.184 301.629C104.282 301.403 105.295 299.152 106.702 296.542C108.125 293.901 109.884 291.021 111.464 289.44C112.048 288.856 112.708 288.31 113.412 287.737L113.559 287.618L113.56 287.617C114.207 287.091 114.889 286.536 115.512 285.942C116.866 284.651 118.06 283.062 118.247 280.816C118.695 275.43 119.598 271.721 125.03 249.388C125.548 247.257 126.108 244.957 126.712 242.469C127.827 237.882 128.633 232.697 129.386 227.36C129.567 226.079 129.745 224.788 129.923 223.495C130.489 219.386 131.06 215.243 131.75 211.225C132.657 205.943 133.762 200.927 135.31 196.563C136.86 192.194 138.831 188.544 141.432 185.94C146.681 180.686 153.366 178.976 158.997 177.535L159.079 177.514C161.844 176.807 164.457 176.136 166.36 175.065C167.331 174.519 168.175 173.839 168.774 172.945C169.381 172.039 169.694 170.973 169.694 169.733V161.866ZM178.853 270.787L178.863 270.803C179.218 271.335 180.147 272.732 182.181 272.732C183.084 272.732 183.778 272.348 184.255 271.895C184.714 271.458 184.997 270.938 185.127 270.549L183.231 269.916C183.194 270.027 183.077 270.256 182.879 270.445C182.698 270.617 182.477 270.732 182.181 270.732C181.239 270.732 180.835 270.158 180.515 269.678L178.853 270.787ZM118.851 298.204C118.678 298.318 118.496 298.438 118.306 298.564C117.553 299.067 116.407 299.433 115.431 299.688C114.418 299.952 113.437 300.133 112.921 300.219L112.593 298.246C113.076 298.165 113.993 297.996 114.927 297.752C115.9 297.498 116.751 297.198 117.198 296.9C117.439 296.739 117.653 296.598 117.844 296.473C118.49 296.047 118.872 295.796 119.199 295.495C119.571 295.154 119.88 294.735 120.354 293.785L122.141 294.68C121.617 295.73 121.177 296.394 120.549 296.97C120.092 297.389 119.535 297.755 118.854 298.202L118.851 298.204ZM158.712 376.836C159.295 377.139 160.687 377.709 163.399 378.252C164.206 378.414 165.176 378.318 166.004 378.152C166.406 378.071 166.751 377.979 166.995 377.908C167.116 377.872 167.211 377.842 167.274 377.821C167.305 377.81 167.329 377.802 167.343 377.797L167.358 377.792L167.359 377.792L167.36 377.791L170.687 376.592L168.478 379.357L168.477 379.359L168.475 379.361L168.472 379.365L168.463 379.376C168.456 379.385 168.446 379.396 168.435 379.409C168.413 379.435 168.383 379.47 168.344 379.512C168.268 379.596 168.159 379.709 168.02 379.839C167.744 380.097 167.339 380.429 166.82 380.726C165.772 381.326 164.225 381.795 162.387 381.181C160.861 380.672 159.115 380.045 157.525 378.463C157.401 378.39 157.295 378.319 157.209 378.252C157.16 378.215 157.068 378.141 156.985 378.039L156.983 378.037C156.961 378.011 156.814 377.837 156.764 377.57C156.732 377.397 156.723 377.057 156.976 376.749C157.213 376.459 157.521 376.4 157.655 376.386C157.89 376.364 158.074 376.432 158.109 376.445L158.113 376.446C158.179 376.471 158.234 376.498 158.271 376.518C158.347 376.558 158.418 376.605 158.481 376.65C158.553 376.702 158.631 376.764 158.712 376.836ZM148.976 123.704C149.592 123.664 150.36 123.583 151.204 123.468C150.94 129.931 151.49 135.422 152.864 140.366C152.076 139.96 151.328 139.22 150.666 138.155C149.618 136.467 148.906 134.13 148.715 131.656C148.52 129.106 148.562 127.12 148.69 125.684C148.768 124.801 148.877 124.147 148.976 123.704ZM211.065 140.528C212.233 136.268 213.009 131.6 213.264 127.03L215.198 125.094C215.206 125.33 215.214 125.571 215.222 125.816L215.222 125.818L215.222 125.82C215.248 126.594 215.276 127.407 215.295 128.207C215.346 130.283 215.342 132.286 215.155 133.591C214.927 135.194 214.232 137.049 213.258 138.483C212.553 139.52 211.796 140.209 211.065 140.528ZM207.194 376.648C206.541 376.95 204.984 377.512 201.956 378.046C201.022 378.211 199.916 378.112 198.993 377.949C198.542 377.869 198.154 377.778 197.881 377.708C197.745 377.672 197.638 377.642 197.567 377.622C197.531 377.611 197.505 377.603 197.488 377.598L197.47 377.593L197.467 377.592L193.932 376.47L196.426 379.218L196.428 379.219L196.429 379.221L196.433 379.225L196.443 379.236C196.451 379.244 196.461 379.255 196.473 379.267L196.488 379.282C196.498 379.293 196.509 379.304 196.521 379.316C196.537 379.332 196.554 379.349 196.573 379.367C196.657 379.448 196.776 379.557 196.928 379.682C197.231 379.931 197.671 380.249 198.233 380.532C199.365 381.101 201.007 381.536 202.962 380.962C204.639 380.47 206.544 379.868 208.286 378.34C208.424 378.269 208.54 378.2 208.634 378.136C208.685 378.102 208.783 378.033 208.872 377.937C208.898 377.909 208.938 377.864 208.979 377.802C209.012 377.753 209.093 377.627 209.131 377.444C209.174 377.237 209.174 376.864 208.883 376.552C208.635 376.287 208.338 376.245 208.233 376.236C208.024 376.218 207.859 376.272 207.825 376.283L207.822 376.284C207.759 376.305 207.706 376.328 207.669 376.345C207.623 376.367 207.577 376.391 207.534 376.416C207.506 376.432 207.478 376.449 207.452 376.466C207.373 376.516 207.286 376.577 207.194 376.648ZM207.513 376.481C207.515 376.479 207.514 376.48 207.509 376.484L207.513 376.481ZM244.505 298.027C246.598 299.63 248.67 300.241 251.108 300.232L251.101 298.232C249.072 298.239 247.437 297.754 245.718 296.438C244.825 295.754 244.384 295.081 243.926 294.384C243.766 294.14 243.604 293.893 243.42 293.641L241.808 294.823C241.91 294.963 242.022 295.134 242.148 295.327L242.149 295.328C242.625 296.059 243.311 297.113 244.505 298.027Z" fill="#4D4D4D"/>
<path fill-rule="evenodd" clip-rule="evenodd" d="M368.697 159.724H370.694V169.083C370.694 170.274 370.374 171.299 369.761 172.17C369.16 173.026 368.316 173.68 367.351 174.21C365.488 175.233 362.937 175.914 360.222 176.638L360.089 176.674C354.447 178.18 347.712 180.004 342.432 185.29C339.831 187.894 337.86 191.544 336.31 195.913C334.762 200.277 333.657 205.293 332.75 210.575C332.06 214.594 331.489 218.736 330.923 222.845C330.745 224.138 330.567 225.429 330.386 226.711C329.633 232.047 328.827 237.232 327.712 241.819C327.108 244.307 326.548 246.607 326.03 248.738C320.598 271.071 319.695 274.781 319.247 280.166C319.06 282.412 317.866 284.001 316.512 285.292C315.889 285.886 315.207 286.441 314.559 286.968C314.51 287.008 314.461 287.048 314.412 287.087C313.708 287.66 313.048 288.206 312.464 288.79C310.884 290.371 309.125 293.251 307.702 295.892C306.295 298.502 305.282 300.753 305.184 300.98C305.152 301.054 305.102 301.158 305.041 301.287C304.815 301.76 304.432 302.563 304.187 303.435C304.033 303.984 303.971 304.449 304.008 304.781C304.042 305.077 304.131 305.147 304.214 305.188C304.794 305.479 305.257 305.522 305.652 305.445C306.064 305.365 306.499 305.133 306.975 304.71C307.957 303.836 308.882 302.358 309.893 300.587L311.708 301.399C310.983 303.575 310.313 305.272 309.725 306.762C308.231 310.547 307.264 312.997 307.264 318.583C307.264 319.384 307.735 319.999 308.363 320.47C308.669 320.7 308.981 320.87 309.22 320.983C309.338 321.039 309.434 321.079 309.498 321.104C309.53 321.117 309.553 321.125 309.567 321.13L309.577 321.134L309.579 321.135L309.58 321.135L309.581 321.135L310.261 321.362V322.059C310.262 322.07 310.264 322.09 310.27 322.119C310.284 322.186 310.315 322.287 310.379 322.399C310.49 322.594 310.76 322.927 311.502 323.112C312.198 323.287 312.823 323.119 313.31 322.876C313.552 322.754 313.747 322.62 313.88 322.518C313.945 322.467 313.994 322.426 314.023 322.4C314.037 322.387 314.047 322.378 314.052 322.373L314.053 322.372L314.054 322.37L314.628 321.796L315.303 322.246C315.302 322.246 315.302 322.246 315.304 322.247C315.306 322.248 315.31 322.251 315.315 322.254C315.319 322.256 315.324 322.259 315.33 322.262C315.357 322.278 315.403 322.305 315.468 322.337C315.597 322.401 315.793 322.488 316.042 322.562C316.539 322.712 317.226 322.809 318.01 322.613C318.743 322.429 319.328 321.959 319.753 321.481C319.961 321.247 320.117 321.025 320.22 320.864C320.271 320.784 320.308 320.721 320.33 320.68C320.342 320.66 320.349 320.645 320.354 320.638L320.355 320.635L320.355 320.634L320.356 320.633L320.357 320.632L320.677 319.991L321.383 320.092L321.386 320.092L321.388 320.092L321.39 320.093L321.395 320.093C321.409 320.095 321.435 320.097 321.471 320.1C321.542 320.105 321.654 320.109 321.796 320.106C322.082 320.1 322.475 320.062 322.902 319.936C323.73 319.692 324.713 319.118 325.325 317.689C325.341 317.65 325.366 317.593 325.399 317.517C325.805 316.576 327.41 312.857 328.968 308.661C329.81 306.395 330.633 304.003 331.244 301.845C331.862 299.661 332.237 297.809 332.237 296.583C332.237 295.33 332.221 294.191 332.207 293.176C332.192 292.014 332.178 291.015 332.193 290.194C332.206 289.409 332.245 288.717 332.34 288.13C332.434 287.549 332.595 286.992 332.904 286.528C333.099 286.235 333.392 285.652 333.768 284.781C334.136 283.93 334.559 282.859 335.018 281.631C335.935 279.175 336.983 276.122 337.994 273.002C340.028 266.727 341.872 260.307 342.237 257.931C342.746 254.619 344.011 249.688 345.192 245.143C345.259 244.886 345.326 244.63 345.392 244.375C346.511 240.075 347.502 236.268 347.727 234.459C348.101 231.467 348.511 219.733 348.262 214.375C348.248 214.129 348.235 213.884 348.221 213.64L350.215 213.516C350.23 213.747 350.244 213.995 350.256 214.257C351.339 234.185 350.328 260.891 349.363 286.407C349.274 288.74 349.187 291.063 349.101 293.37C348.582 307.309 348.136 320.667 348.119 332.131C348.103 343.614 348.518 353.124 349.7 359.397C351.134 367.008 351.132 373.597 350.776 380.075C350.662 382.153 350.513 384.207 350.363 386.275C350.043 390.689 349.717 395.169 349.717 400.083C349.717 411.329 351.324 419.998 353.065 427.751C353.385 429.178 353.711 430.579 354.033 431.961C355.454 438.064 356.794 443.82 357.207 450.016C357.416 453.147 356.508 455.493 354.997 457.315C353.518 459.099 351.502 460.33 349.587 461.342C348.97 461.668 348.373 461.968 347.801 462.254C346.531 462.892 345.389 463.465 344.438 464.123C343.102 465.049 342.456 465.944 342.456 467.082C342.456 468.196 342.681 468.854 343.048 469.327C343.434 469.823 344.079 470.25 345.194 470.69C346.304 471.129 347.743 471.531 349.628 472.058L349.667 472.069C351.552 472.595 353.83 473.234 356.526 474.134C361.046 475.642 364.971 476.843 368.152 477.022C369.727 477.11 371.053 476.942 372.144 476.481C373.21 476.031 374.108 475.279 374.817 474.094C376.993 469.933 376.562 465.991 375.493 461.7C375.252 460.731 374.974 459.736 374.689 458.717C373.73 455.282 372.692 451.564 372.692 447.582C372.692 444.866 373.061 440.823 373.484 436.191C373.615 434.759 373.751 433.27 373.882 431.746C374.444 425.25 374.938 418.054 374.691 411.621C374.441 405.124 374.191 398.485 374.128 392.844C374.066 387.239 374.186 382.507 374.71 379.887C374.898 378.946 375.319 375.292 375.88 369.832C376.438 364.407 377.129 357.27 377.856 349.428C379.312 333.743 380.917 315.249 381.916 302.007L381.985 301.083L384.372 301.082L384.409 302.043C385.407 327.512 389.669 368.466 391.657 379.911C391.827 380.893 391.868 382.803 391.85 385.153C391.832 387.541 391.75 390.489 391.649 393.615C391.609 394.879 391.565 396.173 391.521 397.471C391.348 402.604 391.172 407.808 391.172 411.582C391.172 417.983 391.854 428.011 392.452 436.794C392.739 441.005 393.006 444.929 393.169 448.03C393.237 449.326 392.842 451.225 392.356 453.296C392.21 453.914 392.054 454.557 391.893 455.219C391.498 456.848 391.073 458.598 390.705 460.407C390.191 462.943 389.805 465.526 389.791 467.916C389.778 470.314 390.14 472.436 391.05 474.103C391.665 475.231 392.373 475.988 393.203 476.48C394.035 476.973 395.064 477.242 396.39 477.27C399.095 477.328 402.811 476.388 408.068 474.634C409.998 473.99 411.869 473.437 413.594 472.927C413.896 472.838 414.194 472.75 414.487 472.663C416.466 472.076 418.205 471.541 419.634 470.967C421.079 470.387 422.099 469.808 422.715 469.184C423.28 468.612 423.499 468.015 423.379 467.235C423.166 465.848 422.339 464.805 421.024 463.843C419.976 463.076 418.724 462.43 417.356 461.725C416.96 461.52 416.553 461.311 416.139 461.092C414.357 460.149 412.483 459.051 411.062 457.491C409.607 455.894 408.653 453.845 408.653 451.082C408.653 449.228 409.103 446.201 409.757 442.538C410.202 440.041 410.751 437.199 411.338 434.164C411.618 432.716 411.906 431.224 412.196 429.704C413.997 420.255 415.855 409.703 416.146 401.547C416.393 394.608 415.929 388.159 415.508 382.532L415.469 382.019C415.067 376.655 414.715 371.971 415.154 368.458C416.648 356.493 418.143 335.035 418.143 323.083C418.143 319.426 417.769 311.234 417.279 300.475C416.968 293.659 416.61 285.813 416.271 277.436C415.397 255.872 414.646 230.843 415.146 211.057L417.144 211.085C417.083 231.915 419.793 242.287 422.984 254.505C423.677 257.157 424.392 259.895 425.107 262.847C426.298 267.767 428.152 272.967 429.851 277.666C429.937 277.902 430.022 278.138 430.107 278.373C431.687 282.74 433.118 286.694 433.61 289.404C434.125 292.24 434.143 294.18 434.153 295.883L434.153 295.948C434.162 297.604 434.169 298.993 434.599 300.858C435.338 304.063 436.697 308.64 438.238 312.526C439.009 314.472 439.813 316.213 440.593 317.513C440.983 318.164 441.352 318.679 441.69 319.049C442.04 319.432 442.291 319.587 442.432 319.634C443.779 320.083 444.791 320.083 445.099 320.083H445.679L445.967 320.563L445.968 320.566L445.969 320.567L445.97 320.568L445.972 320.572C445.979 320.581 445.99 320.599 446.007 320.624C446.042 320.675 446.097 320.752 446.174 320.848C446.329 321.042 446.564 321.303 446.877 321.564C447.498 322.083 448.397 322.577 449.59 322.583C449.959 322.567 450.19 322.481 450.309 322.422C450.366 322.394 450.401 322.37 450.417 322.359L450.837 321.925L451.442 322.14L451.444 322.141L451.46 322.147C451.475 322.152 451.499 322.16 451.53 322.17C451.592 322.191 451.686 322.221 451.804 322.257C452.04 322.328 452.37 322.418 452.741 322.498C453.53 322.666 454.335 322.744 454.86 322.612C455.501 322.452 455.786 322.081 455.938 321.739C456.019 321.556 456.061 321.378 456.083 321.245C456.087 321.218 456.09 321.193 456.093 321.172C456.097 321.141 456.099 321.117 456.1 321.099C456.101 321.087 456.101 321.078 456.101 321.074V320.391L456.747 320.147L456.758 320.143L456.797 320.128C456.815 320.121 456.837 320.112 456.864 320.102C456.888 320.092 456.916 320.081 456.947 320.068C457.076 320.016 457.253 319.942 457.449 319.853C457.865 319.666 458.272 319.455 458.494 319.286C458.491 319.288 458.577 319.21 458.69 318.934C458.793 318.681 458.881 318.354 458.95 317.986C459.089 317.244 459.121 316.487 459.1 316.145C458.86 312.3 457.614 308.498 456.547 305.829C456.039 304.557 455.578 303.558 455.293 302.94L455.257 302.861C455.234 302.811 455.212 302.763 455.191 302.718C455.149 302.626 455.111 302.543 455.081 302.474C455.049 302.403 454.984 302.256 454.951 302.127L454.95 302.124C454.943 302.096 454.911 301.974 454.917 301.821C454.92 301.749 454.933 301.543 455.068 301.325C455.246 301.04 455.555 300.862 455.893 300.853C456.15 300.846 456.336 300.94 456.4 300.975C456.481 301.019 456.539 301.065 456.569 301.09C456.63 301.141 456.675 301.19 456.695 301.212C456.77 301.297 456.853 301.414 456.92 301.509C457.485 302.317 458.304 303.366 459.193 304.141C460.144 304.972 460.875 305.232 461.353 305.112C461.757 305.011 461.974 304.779 462.066 304.434C462.171 304.04 462.13 303.39 461.701 302.53C461.561 302.249 461.338 301.748 461.059 301.117C460.913 300.789 460.752 300.425 460.579 300.039C460.06 298.884 459.406 297.467 458.656 295.995C457.132 293.007 455.284 289.945 453.446 288.335C452.462 287.473 451.631 286.796 450.927 286.23C450.78 286.112 450.637 285.997 450.498 285.887C449.982 285.474 449.526 285.109 449.142 284.776C448.131 283.899 447.461 283.108 447.141 281.825L447.126 281.765L447.119 281.704C445.629 269.526 443.147 259.957 440.901 251.399L440.77 250.903C438.586 242.583 436.632 235.139 436.129 227.204C435.755 225.139 435.404 222.708 435.024 220.078C434.896 219.19 434.764 218.28 434.628 217.354C434.08 213.641 433.444 209.636 432.587 205.669C430.865 197.692 428.285 190.048 423.899 185.258C421.981 183.163 419.325 181.639 416.333 180.415C413.616 179.303 410.695 178.467 407.887 177.663C407.602 177.581 407.318 177.5 407.035 177.419C404.016 176.551 401.115 175.679 398.972 174.488C396.812 173.289 395.168 171.616 395.168 169.083V162.583L397.166 162.582V169.083C397.166 170.55 398.051 171.689 399.941 172.74C401.848 173.799 404.519 174.615 407.587 175.497C407.87 175.578 408.156 175.66 408.445 175.743C411.237 176.541 414.264 177.407 417.089 178.563C420.208 179.839 423.17 181.502 425.372 183.907C430.143 189.117 432.808 197.223 434.54 205.246C435.411 209.279 436.054 213.337 436.604 217.061C436.744 218.007 436.877 218.929 437.006 219.823C437.388 222.466 437.735 224.865 438.105 226.904L438.115 226.961L438.119 227.02C438.604 234.781 440.518 242.074 442.727 250.486L442.833 250.891C445.078 259.443 447.586 269.105 449.094 281.396C449.276 282.081 449.61 282.536 450.45 283.264C450.801 283.569 451.215 283.9 451.725 284.308C451.868 284.422 452.018 284.542 452.177 284.67C452.892 285.245 453.747 285.942 454.761 286.83C456.919 288.72 458.913 292.102 460.435 295.086C461.207 296.6 461.876 298.05 462.401 299.219C462.597 299.657 462.77 300.047 462.92 300.385C463.179 300.969 463.368 301.395 463.488 301.635C464.057 302.775 464.266 303.938 463.997 304.95C463.714 306.011 462.933 306.779 461.838 307.053C460.784 307.316 459.772 306.962 458.916 306.427C459.882 309.065 460.874 312.498 461.094 316.02C461.127 316.55 461.078 317.474 460.913 318.355C460.83 318.799 460.711 319.269 460.54 319.689C460.378 320.087 460.123 320.559 459.703 320.879C459.284 321.197 458.693 321.486 458.269 321.677C458.179 321.718 458.093 321.756 458.012 321.79C457.963 322.012 457.886 322.275 457.763 322.551C457.416 323.334 456.701 324.213 455.345 324.553C454.345 324.803 453.152 324.631 452.324 324.454C451.903 324.364 451.532 324.262 451.26 324.181C451.239 324.193 451.216 324.204 451.194 324.215C450.828 324.396 450.315 324.558 449.644 324.582L449.626 324.583H449.608C447.814 324.583 446.471 323.83 445.598 323.101C445.161 322.737 444.834 322.373 444.614 322.098C444.607 322.089 444.6 322.08 444.593 322.071C443.989 322.04 442.996 321.93 441.801 321.531C441.193 321.328 440.664 320.89 440.216 320.399C439.756 319.896 439.309 319.259 438.88 318.542C438.021 317.109 437.17 315.256 436.381 313.264C434.8 309.275 433.412 304.602 432.653 301.307C432.172 299.224 432.164 297.647 432.155 296.001L432.155 295.894C432.146 294.227 432.128 292.425 431.644 289.761C431.183 287.224 429.804 283.41 428.18 278.92C428.111 278.73 428.042 278.539 427.972 278.346C426.278 273.66 424.387 268.361 423.165 263.318C422.459 260.401 421.748 257.681 421.058 255.039C419.556 249.292 418.149 243.909 417.085 237.635C417.285 250.882 417.754 264.705 418.267 277.354C418.604 285.663 418.96 293.474 419.27 300.279C419.763 311.102 420.141 319.383 420.141 323.083C420.141 335.13 418.639 356.672 417.136 368.706C416.723 372.016 417.061 376.529 417.475 382.048L417.5 382.383C417.921 388.006 418.394 394.556 418.142 401.618C417.845 409.951 415.956 420.65 414.159 430.078C413.866 431.612 413.576 433.112 413.296 434.563C412.711 437.59 412.166 440.407 411.723 442.89C411.064 446.587 410.651 449.437 410.651 451.082C410.651 453.32 411.402 454.896 412.538 456.143C413.708 457.427 415.31 458.391 417.073 459.323C417.435 459.515 417.808 459.707 418.184 459.901C419.575 460.617 421.016 461.359 422.203 462.228C423.749 463.36 425.029 464.817 425.354 466.93C425.58 468.4 425.098 469.615 424.136 470.59C423.224 471.513 421.891 472.216 420.378 472.823C418.849 473.437 417.024 473.996 415.055 474.58C414.759 474.668 414.459 474.757 414.155 474.847C412.429 475.357 410.594 475.899 408.7 476.531C403.469 478.277 399.443 479.336 396.347 479.27C394.772 479.236 393.385 478.911 392.186 478.201C390.984 477.489 390.045 476.434 389.297 475.062C388.161 472.979 387.779 470.476 387.794 467.905C387.808 465.326 388.222 462.597 388.748 460.008C389.123 458.161 389.563 456.35 389.962 454.707C390.12 454.055 390.272 453.429 390.411 452.838C390.916 450.69 391.224 449.089 391.174 448.135C391.014 445.104 390.751 441.229 390.466 437.05C389.867 428.228 389.174 418.05 389.174 411.582C389.174 407.771 389.352 402.519 389.525 397.382C389.569 396.09 389.612 394.804 389.653 393.55C389.753 390.426 389.834 387.499 389.852 385.137C389.871 382.737 389.822 381.022 389.689 380.254C387.961 370.308 384.558 338.515 383.006 313.571C382.073 324.963 380.919 338.052 379.846 349.613C379.117 357.458 378.427 364.602 377.868 370.037C377.312 375.436 376.88 379.219 376.669 380.279C376.193 382.658 376.064 387.176 376.126 392.821C376.188 398.43 376.438 405.041 376.687 411.544C376.94 418.111 376.435 425.415 375.873 431.919C375.737 433.49 375.598 435.01 375.466 436.46C375.046 441.061 374.69 444.965 374.69 447.582C374.69 451.263 375.626 454.62 376.569 458.006C376.865 459.069 377.162 460.136 377.431 461.215C378.54 465.665 379.11 470.217 376.573 475.048L376.561 475.071L376.548 475.093C375.627 476.645 374.401 477.699 372.92 478.324C371.458 478.942 369.803 479.117 368.04 479.018C364.547 478.822 360.366 477.523 355.895 476.031C353.249 475.148 351.012 474.521 349.13 473.995L348.998 473.958C347.192 473.453 345.668 473.027 344.461 472.551C343.223 472.062 342.183 471.47 341.471 470.555C340.742 469.616 340.458 468.469 340.458 467.082C340.458 464.971 341.752 463.553 343.301 462.479C344.373 461.736 345.72 461.06 347.054 460.39C347.596 460.118 348.136 459.847 348.654 459.573C350.524 458.585 352.244 457.504 353.46 456.038C354.643 454.61 355.388 452.769 355.214 450.149C354.813 444.13 353.518 438.565 352.1 432.475C351.775 431.078 351.444 429.653 351.115 428.189C349.359 420.366 347.72 411.536 347.72 400.083C347.72 395.097 348.053 390.493 348.376 386.042C348.525 383.991 348.671 381.973 348.781 379.965C349.132 373.569 349.13 367.158 347.737 359.768C346.516 353.291 346.105 343.614 346.121 332.128C346.138 320.624 346.585 307.232 347.104 293.295C347.19 290.995 347.277 288.68 347.365 286.355C347.964 270.523 348.579 254.281 348.703 239.499C348.309 241.099 347.841 242.899 347.358 244.753C347.281 245.05 347.203 245.348 347.126 245.647C345.935 250.228 344.702 255.047 344.212 258.235C343.817 260.801 341.916 267.381 339.894 273.62C338.877 276.757 337.82 279.84 336.889 282.331C336.424 283.576 335.988 284.681 335.602 285.575C335.224 286.449 334.87 287.18 334.566 287.637C334.483 287.762 334.385 287.999 334.312 288.45C334.24 288.895 334.203 289.474 334.19 290.229C334.176 291.042 334.189 291.981 334.204 293.099C334.218 294.103 334.234 295.252 334.234 296.583C334.234 298.107 333.79 300.188 333.166 302.391C332.535 304.619 331.692 307.066 330.841 309.358C329.263 313.605 327.639 317.369 327.234 318.307C327.202 318.382 327.177 318.439 327.161 318.477C326.275 320.547 324.761 321.473 323.466 321.855C322.831 322.041 322.257 322.097 321.84 322.106C321.824 322.106 321.809 322.106 321.794 322.107C321.655 322.31 321.472 322.554 321.246 322.809C320.671 323.457 319.759 324.236 318.494 324.553C317.28 324.857 316.219 324.704 315.467 324.478C315.244 324.411 315.045 324.337 314.877 324.265C314.692 324.393 314.466 324.533 314.203 324.665C313.442 325.046 312.318 325.378 311.017 325.053C309.761 324.738 309.032 324.072 308.644 323.391C308.524 323.181 308.442 322.979 308.386 322.801C308.38 322.798 308.373 322.795 308.367 322.792C308.043 322.639 307.607 322.403 307.164 322.07C306.294 321.417 305.266 320.281 305.266 318.583C305.266 313.089 306.213 310.238 307.566 306.77C307.102 307.072 306.593 307.299 306.035 307.408C305.15 307.581 304.24 307.437 303.321 306.977C302.457 306.545 302.107 305.752 302.023 305.006C301.943 304.296 302.083 303.539 302.264 302.894C302.57 301.802 303.098 300.709 303.286 300.32C303.318 300.254 303.341 300.208 303.35 300.186C303.468 299.913 304.506 297.609 305.944 294.942C307.365 292.305 309.243 289.186 311.052 287.375C311.717 286.709 312.454 286.104 313.152 285.536L313.285 285.427C313.947 284.889 314.571 284.382 315.134 283.844C316.324 282.709 317.127 281.547 317.256 280C317.718 274.452 318.667 270.549 324.032 248.498C324.567 246.301 325.145 243.923 325.771 241.346C326.86 236.863 327.655 231.764 328.408 226.431C328.587 225.164 328.763 223.883 328.941 222.595C329.508 218.48 330.085 214.291 330.781 210.236C331.696 204.91 332.824 199.765 334.428 195.244C336.029 190.729 338.127 186.771 341.02 183.876C346.715 178.174 353.945 176.244 359.535 174.752L359.574 174.742C362.428 173.98 364.757 173.353 366.39 172.456C367.189 172.017 367.757 171.546 368.127 171.019C368.487 170.508 368.697 169.891 368.697 169.083V159.724Z" fill="#4D4D4D"/>
<path d="M366.43 162.583C366.43 162.583 367.816 161.307 369.427 158.083C369.926 157.083 368.528 161.083 370.925 163.083C373.322 165.083 378.417 165.083 383.911 164.583C383.911 164.583 383.911 161.083 385.909 159.083C385.409 162.083 385.909 165.083 385.909 165.083C394.899 165.583 396.897 160.083 396.897 160.083C396.897 160.083 398.895 162.024 402.121 161.504V157.866C402.121 157.866 403.889 159.583 407.385 159.583L407.175 155.042C407.175 155.042 408.692 156.546 411.219 157.549C410.882 156.379 410.714 155.042 410.714 153.036C410.714 150.529 415.85 144.85 418.295 139.999C420.823 134.985 420.823 126.46 420.823 121.446C420.823 121.446 423.35 121.446 424.866 120.944C421.834 115.428 418.801 104.396 418.801 104.396H423.35C421.834 102.391 418.801 97.3766 414.757 92.3617C409.825 86.2452 395.898 73.0825 375.42 76.5825C371.043 77.4785 366.157 80.7501 362.934 82.5825C341.957 86.5825 341.457 117.852 341.457 119.583C341.457 137.14 352.081 149.526 353.092 153.036C353.583 154.741 353.943 157.083 353.943 157.083C356.63 156.344 357.44 155.083 357.44 155.083V161.083C359.937 161.083 362.434 157.083 362.434 157.083C362.434 159.083 363.933 162.083 366.43 162.583Z" stroke="#4D4D4D" stroke-width="2"/>
<path fill-rule="evenodd" clip-rule="evenodd" d="M381.414 279.635C381.414 279.618 381.414 279.6 381.414 279.582C381.414 279.15 381.19 278.725 380.779 278.323C380.367 277.921 379.859 277.637 379.544 277.511L380.286 275.654C380.804 275.861 381.545 276.277 382.174 276.892C382.276 276.991 382.378 277.099 382.476 277.214C382.538 277.12 382.603 277.027 382.672 276.937C383.123 276.344 383.785 275.788 384.714 275.602L385.106 277.563C384.786 277.627 384.511 277.82 384.26 278.15C384.003 278.487 383.811 278.919 383.673 279.336C383.569 279.648 383.512 279.888 383.467 280.081C383.449 280.155 383.434 280.221 383.418 280.282C383.411 280.307 383.399 280.353 383.382 280.402C383.373 280.426 383.356 280.474 383.328 280.53C383.328 280.53 383.327 280.531 383.327 280.532C383.312 280.562 383.228 280.736 383.042 280.88C382.928 280.969 382.702 281.103 382.389 281.091C382.063 281.078 381.834 280.916 381.71 280.788C381.522 280.596 381.467 280.379 381.459 280.348C381.459 280.347 381.458 280.346 381.458 280.345C381.43 280.24 381.423 280.146 381.421 280.123C381.421 280.122 381.421 280.121 381.421 280.12C381.414 280.015 381.414 279.836 381.414 279.635Z" fill="#4D4D4D"/>
<path fill-rule="evenodd" clip-rule="evenodd" d="M398.33 457.303C398.623 456.498 399.053 455.791 399.562 455.027L401.224 456.137C400.733 456.873 400.415 457.416 400.208 457.986C400.006 458.542 399.893 459.172 399.893 460.082C399.893 460.816 400.005 461.578 400.128 462.277C400.153 462.418 400.18 462.567 400.206 462.712C400.241 462.902 400.275 463.086 400.301 463.241C400.347 463.515 400.393 463.821 400.393 464.082L398.395 464.082C398.395 464.01 398.378 463.856 398.331 463.574C398.305 463.421 398.277 463.268 398.246 463.097C398.22 462.955 398.191 462.8 398.16 462.624C398.033 461.902 397.896 460.998 397.896 460.082C397.896 458.992 398.033 458.122 398.33 457.303Z" fill="#4D4D4D"/>
<path fill-rule="evenodd" clip-rule="evenodd" d="M364.92 456.551C364.75 456.154 364.563 455.716 364.361 455.211L362.506 455.954C362.76 456.591 362.975 457.094 363.154 457.515C363.72 458.844 363.933 459.344 363.933 460.582C363.933 461.222 363.795 461.836 363.636 462.413C363.607 462.518 363.571 462.64 363.536 462.763C363.488 462.931 363.439 463.101 363.404 463.233C363.341 463.471 363.267 463.783 363.267 464.082L365.264 464.082C365.264 464.083 365.264 464.083 365.265 464.082C365.265 464.078 365.266 464.052 365.277 463.996C365.288 463.933 365.307 463.851 365.335 463.745C365.37 463.615 365.404 463.496 365.443 463.36C365.478 463.241 365.516 463.11 365.561 462.946C365.735 462.317 365.93 461.495 365.93 460.582C365.93 458.907 365.542 458.001 364.92 456.551Z" fill="#4D4D4D"/>
<path fill-rule="evenodd" clip-rule="evenodd" d="M382.378 305.513C380.937 308.535 378.217 311.196 373.269 313.02C369.424 314.439 365.096 314.287 361.276 313.496C357.452 312.704 354.023 311.248 351.916 309.93L352.975 308.234C354.864 309.416 358.068 310.79 361.681 311.538C365.298 312.287 369.212 312.385 372.578 311.144C377.12 309.469 379.394 307.129 380.575 304.651C381.781 302.123 381.914 299.326 381.914 296.582H383.912C383.912 299.216 384.465 302.636 386.084 305.56C387.683 308.449 390.317 310.856 394.571 311.597C404.716 313.363 410.449 309.836 412.825 308.25L413.934 309.914C411.315 311.661 405.061 315.453 394.229 313.567C389.293 312.708 386.183 309.866 384.336 306.529C383.829 305.612 383.416 304.658 383.085 303.697C382.896 304.308 382.663 304.915 382.378 305.513Z" fill="#4D4D4D"/>
<path d="M725.985 346.892C725.985 343.016 726.096 334.377 724.326 330.833C722.112 326.403 714.05 321.262 712.153 318.651C707.726 312.559 708.391 307.222 704.406 301.484C701.267 296.963 695 294.285 695 291.516C695 288.747 699.063 288.34 704.96 290.962C709.939 293.177 716.026 307.022 719.899 305.914C723.772 304.806 721.482 295.006 720.452 289.855C719.346 284.317 707.726 253.251 714.919 251.091C720.452 249.43 725.044 286.689 729.305 285.978C734.285 285.148 725.985 245 734.285 245C740.925 245 738.158 287.64 741.478 287.64C744.798 287.64 749.778 250.122 755.864 251.645C761.951 253.168 748.701 290.598 750.884 290.962C754.204 291.516 766.316 263.828 770.25 268.258C774.677 273.242 758.078 290.409 757.524 300.93C756.971 311.452 755.311 319.758 752.544 326.403C750.331 331.719 750.884 343.016 751.438 348" stroke="#4D4D4D" stroke-width="2"/>
<path d="M615.83 312.914C615.83 309.113 615.722 300.642 617.446 297.167C619.601 292.823 627.451 287.781 629.299 285.22C633.609 279.247 632.962 274.014 636.841 268.387C639.898 263.954 646 261.328 646 258.613C646 255.898 642.044 255.498 636.302 258.07C631.454 260.242 625.527 273.817 621.756 272.731C617.985 271.645 620.215 262.035 621.217 256.984C622.295 251.554 633.609 221.091 626.605 218.973C621.217 217.344 616.747 253.88 612.597 253.183C607.749 252.368 615.83 213 607.749 213C601.284 213 603.977 254.812 600.745 254.812C597.512 254.812 592.664 218.022 586.737 219.516C580.811 221.009 593.712 257.713 591.586 258.07C588.354 258.613 576.561 231.462 572.73 235.806C568.42 240.694 584.582 257.527 585.121 267.844C585.66 278.161 587.276 286.306 589.97 292.823C592.125 298.035 591.586 309.113 591.047 314" stroke="#4D4D4D" stroke-width="2"/>

</svg>
